<svg xmlns="http://www.w3.org/2000/svg" xmlns:xlink="http://www.w3.org/1999/xlink" xmlns:lucid="lucid" width="1380" height="1020"><g transform="translate(-320 -120)" lucid:page-tab-id="0_0"><path d="M0 0h1870.87v1322.84H0z" fill="#fff"/><path d="M855.43 146a6 6 0 0 1 6-6H1674a6 6 0 0 1 6 6v968a6 6 0 0 1-6 6H861.43a6 6 0 0 1-6-6z" stroke="#3a414a" fill="#f2f3f5"/><use xlink:href="#a" transform="matrix(1,0,0,1,867.4330708661416,152) translate(222.16666666666669 942.9837496319998)"/><use xlink:href="#b" transform="matrix(1,0,0,1,867.4330708661416,152) translate(490.27777777777777 942.9837496319998)"/><path d="M1086.36 245a5 5 0 0 1 5-5h247.56a5 5 0 0 1 5 5v111.98a5 5 0 0 1-5 5h-247.56a5 5 0 0 1-5-5z" fill="#fff" fill-opacity="0"/><path d="M1091.36 240a5 5 0 0 0-5 5v111.98a5 5 0 0 0 5 5h247.56a5 5 0 0 0 5-5V245a5 5 0 0 0-5-5z" stroke="#000" stroke-width="3" fill="#002060"/><use xlink:href="#c" transform="matrix(1,0,0,1,1103.61672457374,256.345160875) translate(53.50390625 55)"/><path d="M1086.36 405a5 5 0 0 1 5-5h247.56a5 5 0 0 1 5 5v111.98a5 5 0 0 1-5 5h-247.56a5 5 0 0 1-5-5z" fill="#fff" fill-opacity="0"/><path d="M1091.36 400a5 5 0 0 0-5 5v111.98a5 5 0 0 0 5 5h247.56a5 5 0 0 0 5-5V405a5 5 0 0 0-5-5z" stroke="#000" stroke-width="3" fill="#002060"/><use xlink:href="#d" transform="matrix(1,0,0,1,1103.61672457374,416.345160875) translate(62.595703125 55)"/><path d="M1386.36 245a5 5 0 0 1 5-5h247.56a5 5 0 0 1 5 5v111.98a5 5 0 0 1-5 5h-247.56a5 5 0 0 1-5-5z" fill="#fff" fill-opacity="0"/><path d="M1391.36 240a5 5 0 0 0-5 5v111.98a5 5 0 0 0 5 5h247.56a5 5 0 0 0 5-5V245a5 5 0 0 0-5-5z" stroke="#000" stroke-width="3" fill="#002060"/><use xlink:href="#e" transform="matrix(1,0,0,1,1403.61672457374,256.345160875) translate(53.50390625 55)"/><path d="M1386.36 405a5 5 0 0 1 5-5h247.56a5 5 0 0 1 5 5v111.98a5 5 0 0 1-5 5h-247.56a5 5 0 0 1-5-5z" fill="#fff" fill-opacity="0"/><path d="M1391.36 400a5 5 0 0 0-5 5v111.98a5 5 0 0 0 5 5h247.56a5 5 0 0 0 5-5V405a5 5 0 0 0-5-5z" stroke="#000" stroke-width="3" fill="#002060"/><use xlink:href="#f" transform="matrix(1,0,0,1,1403.61672457374,416.345160875) translate(62.595703125 55)"/><path d="M1086.36 565a5 5 0 0 1 5-5h247.56a5 5 0 0 1 5 5v111.98a5 5 0 0 1-5 5h-247.56a5 5 0 0 1-5-5z" fill="#fff" fill-opacity="0"/><path d="M1091.36 560a5 5 0 0 0-5 5v111.98a5 5 0 0 0 5 5h247.56a5 5 0 0 0 5-5V565a5 5 0 0 0-5-5z" stroke="#000" stroke-width="3" fill="#002060"/><use xlink:href="#g" transform="matrix(1,0,0,1,1103.61672457374,576.345160875) translate(62.595703125 55)"/><path d="M1386.36 565a5 5 0 0 1 5-5h247.56a5 5 0 0 1 5 5v111.98a5 5 0 0 1-5 5h-247.56a5 5 0 0 1-5-5z" fill="#fff" fill-opacity="0"/><path d="M1391.36 560a5 5 0 0 0-5 5v111.98a5 5 0 0 0 5 5h247.56a5 5 0 0 0 5-5V565a5 5 0 0 0-5-5z" stroke="#000" stroke-width="3" fill="#002060"/><use xlink:href="#h" transform="matrix(1,0,0,1,1403.61672457374,576.345160875) translate(62.595703125 55)"/><path d="M1086.36 725a5 5 0 0 1 5-5h247.56a5 5 0 0 1 5 5v111.98a5 5 0 0 1-5 5h-247.56a5 5 0 0 1-5-5z" fill="#fff" fill-opacity="0"/><path d="M1091.36 720a5 5 0 0 0-5 5v111.98a5 5 0 0 0 5 5h247.56a5 5 0 0 0 5-5V725a5 5 0 0 0-5-5z" stroke="#000" stroke-width="3" fill="#002060"/><use xlink:href="#i" transform="matrix(1,0,0,1,1103.61672457374,736.345160875) translate(61.82421875 55)"/><path d="M1386.36 725a5 5 0 0 1 5-5h247.56a5 5 0 0 1 5 5v111.98a5 5 0 0 1-5 5h-247.56a5 5 0 0 1-5-5z" fill="#fff" fill-opacity="0"/><path d="M1391.36 720a5 5 0 0 0-5 5v111.98a5 5 0 0 0 5 5h247.56a5 5 0 0 0 5-5V725a5 5 0 0 0-5-5z" stroke="#000" stroke-width="3" fill="#002060"/><use xlink:href="#j" transform="matrix(1,0,0,1,1403.61672457374,736.345160875) translate(62.732421875 55)"/><path d="M1086.36 885a5 5 0 0 1 5-5h247.56a5 5 0 0 1 5 5v111.98a5 5 0 0 1-5 5h-247.56a5 5 0 0 1-5-5z" fill="#fff" fill-opacity="0"/><path d="M1091.36 880a5 5 0 0 0-5 5v111.98a5 5 0 0 0 5 5h247.56a5 5 0 0 0 5-5V885a5 5 0 0 0-5-5z" stroke="#000" stroke-width="3" fill="#002060"/><use xlink:href="#k" transform="matrix(1,0,0,1,1103.61672457374,896.345160875) translate(63.357421875 55)"/><path d="M1386.36 885a5 5 0 0 1 5-5h247.56a5 5 0 0 1 5 5v111.98a5 5 0 0 1-5 5h-247.56a5 5 0 0 1-5-5z" fill="#fff" fill-opacity="0"/><path d="M1391.36 880a5 5 0 0 0-5 5v111.98a5 5 0 0 0 5 5h247.56a5 5 0 0 0 5-5V885a5 5 0 0 0-5-5z" stroke="#000" stroke-width="3" fill="#002060"/><use xlink:href="#l" transform="matrix(1,0,0,1,1403.61672457374,896.345160875) translate(61.3359375 55)"/><path d="M794 619a5 5 0 0 1 5-5h113.6a5 5 0 0 1 5 5v22a5 5 0 0 1-5 5H799a5 5 0 0 1-5-5z" fill="#fff" fill-opacity="0"/><path d="M799 614a5 5 0 0 0-5 5v22a5 5 0 0 0 5 5h113.6a5 5 0 0 0 5-5v-22a5 5 0 0 0-5-5z" stroke="#000" stroke-width="3" fill="#635dff"/><use xlink:href="#m" transform="matrix(1,0,0,1,802.2802784695314,618.295754625) translate(6.278645833333343 17.555555555555554)"/><use xlink:href="#n" transform="matrix(1,0,0,1,802.2802784695314,618.295754625) translate(45.40625000000001 17.555555555555554)"/><path d="M1000 290a5 5 0 0 1 5-5h113.6a5 5 0 0 1 5 5v21.98a5 5 0 0 1-5 5H1005a5 5 0 0 1-5-5z" fill="#fff" fill-opacity="0"/><path d="M1005 285a5 5 0 0 0-5 5v21.98a5 5 0 0 0 5 5h113.6a5 5 0 0 0 5-5V290a5 5 0 0 0-5-5z" stroke="#000" stroke-width="3" fill="#635dff"/><use xlink:href="#m" transform="matrix(1,0,0,1,1008.2802784695314,289.285160875) translate(23.173177083333336 17.555555555555554)"/><use xlink:href="#o" transform="matrix(1,0,0,1,1008.2802784695314,289.285160875) translate(62.30078125 17.555555555555554)"/><path d="M920.6 630.57h32.2a6 6 0 0 0 6-6v-318.3a6 6 0 0 1 6-6h13.08" stroke="#3a414a" stroke-width="3" fill="none"/><path d="M920.63 632.07h-1.54v-3h1.52z" stroke="#3a414a" stroke-width=".05" fill="#3a414a"/><path d="M993.65 300.28l-14.27 4.63v-9.26z" stroke="#3a414a" stroke-width="3" fill="#3a414a"/><path d="M340 495a6 6 0 0 1 6-6h248a6 6 0 0 1 6 6v270a6 6 0 0 1-6 6H346a6 6 0 0 1-6-6z" stroke="#3a414a" fill="#f2f3f5"/><use xlink:href="#p" transform="matrix(1,0,0,1,352,501.01059375) translate(44.83333333333334 112.625)"/><use xlink:href="#q" transform="matrix(1,0,0,1,352,501.01059375) translate(3.1666666666666856 160.625)"/><path d="M678.25 631.5H602v-3h76.25zm93.63 0h-57.13v-3h57.13z" stroke="#3a414a" stroke-width=".05" fill="#3a414a"/><path d="M787.65 630l-14.27 4.63v-9.26z" fill="#3a414a"/><path d="M792.5 630l-20.62 6.7v-13.4zm-17.62 2.57l7.9-2.57-7.9-2.57z" stroke="#3a414a" stroke-width=".05" fill="#3a414a"/><path d="M602.04 631.5h-1.54v-3h1.54z" fill="#3a414a"/><path d="M602.06 631.52h-1.58v-3.04h1.58zm-1.53-3v2.96H602v-2.96z" stroke="#3a414a" stroke-width=".05" fill="#3a414a"/><g><use xlink:href="#r" transform="matrix(1,0,0,1,678.2530864197456,619.3333334677998) translate(0 14.222222222222223)"/></g><defs><path fill="#3a414a" d="M67-125c0 53 21 87 73 88 37 1 54-22 65-47l45 17C233-25 199 4 140 4 58 4 20-42 15-125 8-235 124-281 211-232c18 10 29 29 36 50l-46 12c-8-25-30-41-62-41-52 0-71 34-72 86" id="s"/><path fill="#3a414a" d="M110-194c64 0 96 36 96 99 0 64-35 99-97 99-61 0-95-36-95-99 0-62 34-99 96-99zm-1 164c35 0 45-28 45-65 0-40-10-65-43-65-34 0-45 26-45 65 0 36 10 65 43 65" id="t"/><path fill="#3a414a" d="M135-194c87-1 58 113 63 194h-50c-7-57 23-157-34-157-59 0-34 97-39 157H25l-1-190h47c2 12-1 28 3 38 12-26 28-41 61-42" id="u"/><path fill="#3a414a" d="M115-3C79 11 28 4 28-45v-112H4v-33h27l15-45h31v45h36v33H77v99c-1 23 16 31 38 25v30" id="v"/><path fill="#3a414a" d="M133-34C117-15 103 5 69 4 32 3 11-16 11-54c-1-60 55-63 116-61 1-26-3-47-28-47-18 1-26 9-28 27l-52-2c7-38 36-58 82-57s74 22 75 68l1 82c-1 14 12 18 25 15v27c-30 8-71 5-69-32zm-48 3c29 0 43-24 42-57-32 0-66-3-65 30 0 17 8 27 23 27" id="w"/><path fill="#3a414a" d="M25-224v-37h50v37H25zM25 0v-190h50V0H25" id="x"/><path fill="#3a414a" d="M185-48c-13 30-37 53-82 52C43 2 14-33 14-96s30-98 90-98c62 0 83 45 84 108H66c0 31 8 55 39 56 18 0 30-7 34-22zm-45-69c5-46-57-63-70-21-2 6-4 13-4 21h74" id="y"/><path fill="#3a414a" d="M135-150c-39-12-60 13-60 57V0H25l-1-190h47c2 13-1 29 3 40 6-28 27-53 61-41v41" id="z"/><path fill="#3a414a" d="M24 0v-248h52v208h133V0H24" id="A"/><path fill="#3a414a" d="M135-194c52 0 70 43 70 98 0 56-19 99-73 100-30 1-46-15-58-35L72 0H24l1-261h50v104c11-23 29-37 60-37zM114-30c31 0 40-27 40-66 0-37-7-63-39-63s-41 28-41 65c0 36 8 64 40 64" id="B"/><g id="a"><use transform="matrix(0.1111111111111111,0,0,0.1111111111111111,0,0)" xlink:href="#s"/><use transform="matrix(0.1111111111111111,0,0,0.1111111111111111,28.777777777777775,0)" xlink:href="#t"/><use transform="matrix(0.1111111111111111,0,0,0.1111111111111111,53.11111111111111,0)" xlink:href="#u"/><use transform="matrix(0.1111111111111111,0,0,0.1111111111111111,77.44444444444444,0)" xlink:href="#v"/><use transform="matrix(0.1111111111111111,0,0,0.1111111111111111,90.66666666666666,0)" xlink:href="#w"/><use transform="matrix(0.1111111111111111,0,0,0.1111111111111111,112.88888888888889,0)" xlink:href="#x"/><use transform="matrix(0.1111111111111111,0,0,0.1111111111111111,124,0)" xlink:href="#u"/><use transform="matrix(0.1111111111111111,0,0,0.1111111111111111,148.33333333333334,0)" xlink:href="#y"/><use transform="matrix(0.1111111111111111,0,0,0.1111111111111111,170.55555555555557,0)" xlink:href="#z"/><use transform="matrix(0.1111111111111111,0,0,0.1111111111111111,186.11111111111111,0)" xlink:href="#A"/><use transform="matrix(0.1111111111111111,0,0,0.1111111111111111,210.44444444444446,0)" xlink:href="#w"/><use transform="matrix(0.1111111111111111,0,0,0.1111111111111111,232.6666666666667,0)" xlink:href="#B"/></g><path fill="#3a414a" d="M186 0v-106H76V0H24v-248h52v99h110v-99h50V0h-50" id="C"/><path fill="#3a414a" d="M137-138c1-29-70-34-71-4 15 46 118 7 119 86 1 83-164 76-172 9l43-7c4 19 20 25 44 25 33 8 57-30 24-41C81-84 22-81 20-136c-2-80 154-74 161-7" id="D"/><g id="b"><use transform="matrix(0.1111111111111111,0,0,0.1111111111111111,0,0)" xlink:href="#C"/><use transform="matrix(0.1111111111111111,0,0,0.1111111111111111,28.777777777777775,0)" xlink:href="#t"/><use transform="matrix(0.1111111111111111,0,0,0.1111111111111111,53.11111111111111,0)" xlink:href="#D"/><use transform="matrix(0.1111111111111111,0,0,0.1111111111111111,75.33333333333333,0)" xlink:href="#v"/></g><path fill="#fff" d="M469-200c119 0 194-62 190-182-5-155-165-165-285-207C212-646 83-736 88-958c4-182 105-295 242-352 113-48 278-41 392 4 65 25 120 59 166 104l-67 124c-13 37-61 47-98 23-55-35-117-75-210-75-111 0-181 57-181 159 0 146 173 155 287 201 153 61 292 138 287 351-7 273-167 433-444 433-190 0-326-77-424-175l78-125c18-34 71-42 108-14 63 47 132 100 245 100" id="E"/><path fill="#fff" d="M1037-902c0 300-189 436-495 441H378V0H115v-1328h427c303 4 495 131 495 426zm-263 0c0-143-81-224-232-224H378v461h164c156 2 232-87 232-237" id="F"/><path fill="#fff" d="M405 0H141v-1328h264V0" id="G"/><path fill="#fff" d="M122-1328c70 6 164-16 206 20 6 5 13 12 20 21l654 862c-4-44-6-86-6-125v-778h231V0c-62-4-141 10-187-10-14-6-27-18-40-35L348-902c4 41 6 80 6 115V0H122v-1328" id="H"/><path fill="#fff" d="M928-1328v209H382v351h425v201H382v358h547L928 0H118v-1328h810" id="I"/><path fill="#fff" d="M236-180h257c2-279-3-565 3-840L323-871c-27 30-91 18-110-9l-76-104 399-346h198v1150h227V0H236v-180" id="J"/><g id="c"><use transform="matrix(0.01953125,0,0,0.01953125,0,0)" xlink:href="#E"/><use transform="matrix(0.01953125,0,0,0.01953125,18.90625,0)" xlink:href="#F"/><use transform="matrix(0.01953125,0,0,0.01953125,40.1953125,0)" xlink:href="#G"/><use transform="matrix(0.01953125,0,0,0.01953125,50.859375,0)" xlink:href="#H"/><use transform="matrix(0.01953125,0,0,0.01953125,77.20703125,0)" xlink:href="#I"/><use transform="matrix(0.01953125,0,0,0.01953125,96.71875,0)" xlink:href="#J"/></g><path fill="#fff" d="M371-216h461V0H108v-1328h263v1112" id="K"/><path fill="#fff" d="M1240 0h-202c-47 1-76-24-87-58l-84-261H378L295-59c-11 29-44 59-86 59H4l484-1328h268zM437-503h370c-61-196-127-384-186-583-56 202-123 386-184 583" id="L"/><path fill="#fff" d="M890-1328v209H373v376h433v209H373V0H109v-1328h781" id="M"/><g id="d"><use transform="matrix(0.01953125,0,0,0.01953125,0,0)" xlink:href="#K"/><use transform="matrix(0.01953125,0,0,0.01953125,16.9140625,0)" xlink:href="#I"/><use transform="matrix(0.01953125,0,0,0.01953125,35.9375,0)" xlink:href="#L"/><use transform="matrix(0.01953125,0,0,0.01953125,60.17578125,0)" xlink:href="#M"/><use transform="matrix(0.01953125,0,0,0.01953125,78.53515625,0)" xlink:href="#J"/></g><path fill="#fff" d="M89-955c40-238 181-388 449-388 250 0 409 134 409 381 0 232-139 347-258 472L407-195c126-46 310-24 475-29 49-1 86 32 85 80V0H69c-2-76 0-138 43-180 161-160 326-321 472-494 63-74 110-153 115-281 6-143-107-217-242-175-61 19-100 69-121 131-19 56-46 79-119 66" id="N"/><g id="e"><use transform="matrix(0.01953125,0,0,0.01953125,0,0)" xlink:href="#E"/><use transform="matrix(0.01953125,0,0,0.01953125,18.90625,0)" xlink:href="#F"/><use transform="matrix(0.01953125,0,0,0.01953125,40.1953125,0)" xlink:href="#G"/><use transform="matrix(0.01953125,0,0,0.01953125,50.859375,0)" xlink:href="#H"/><use transform="matrix(0.01953125,0,0,0.01953125,77.20703125,0)" xlink:href="#I"/><use transform="matrix(0.01953125,0,0,0.01953125,96.71875,0)" xlink:href="#N"/></g><g id="f"><use transform="matrix(0.01953125,0,0,0.01953125,0,0)" xlink:href="#K"/><use transform="matrix(0.01953125,0,0,0.01953125,16.9140625,0)" xlink:href="#I"/><use transform="matrix(0.01953125,0,0,0.01953125,35.9375,0)" xlink:href="#L"/><use transform="matrix(0.01953125,0,0,0.01953125,60.17578125,0)" xlink:href="#M"/><use transform="matrix(0.01953125,0,0,0.01953125,78.53515625,0)" xlink:href="#N"/></g><path fill="#fff" d="M113-955c38-239 181-388 448-388 186 0 310 81 369 209 18 42 27 87 27 134 1 168-77 256-203 297 151 51 227 154 227 307C981-126 800 8 532 14 260 20 143-131 76-338c63-25 186-102 236-14 46 82 93 164 218 164 130 0 203-76 210-200 9-175-112-206-288-206v-171c158-2 269-37 269-193 0-117-60-182-173-183-99-1-165 67-190 142-19 57-44 79-118 66" id="O"/><g id="g"><use transform="matrix(0.01953125,0,0,0.01953125,0,0)" xlink:href="#K"/><use transform="matrix(0.01953125,0,0,0.01953125,16.9140625,0)" xlink:href="#I"/><use transform="matrix(0.01953125,0,0,0.01953125,35.9375,0)" xlink:href="#L"/><use transform="matrix(0.01953125,0,0,0.01953125,60.17578125,0)" xlink:href="#M"/><use transform="matrix(0.01953125,0,0,0.01953125,78.53515625,0)" xlink:href="#O"/></g><path fill="#fff" d="M1007-505c-9 70 29 185-49 186H854V0H644v-319H105c-83-4-69-108-90-173l609-837h230v824h153zm-363 0c3-182-8-376 8-546L269-505h375" id="P"/><g id="h"><use transform="matrix(0.01953125,0,0,0.01953125,0,0)" xlink:href="#K"/><use transform="matrix(0.01953125,0,0,0.01953125,16.9140625,0)" xlink:href="#I"/><use transform="matrix(0.01953125,0,0,0.01953125,35.9375,0)" xlink:href="#L"/><use transform="matrix(0.01953125,0,0,0.01953125,60.17578125,0)" xlink:href="#M"/><use transform="matrix(0.01953125,0,0,0.01953125,78.53515625,0)" xlink:href="#P"/></g><path fill="#fff" d="M1179 0H915v-575H377V0H113v-1328h264v567h538v-567h264V0" id="Q"/><path fill="#fff" d="M352-974c116-47 283-48 399 0 177 72 288 230 288 475 0 247-110 405-288 478-116 48-283 48-399 0C173-94 62-251 62-499c0-246 112-403 290-475zm-28 477c0 189 54 318 228 318 172 0 225-131 225-318s-53-318-225-318c-174 0-228 130-228 318" id="R"/><path fill="#fff" d="M80-702c6-234 206-338 457-298 93 15 166 59 220 115-26 37-46 85-79 115-8 4-17 7-28 7-73 0-113-61-203-61-94 0-160 79-107 152 93 83 270 88 356 179 39 42 70 95 69 176C761-63 553 47 286 6 191-9 109-52 51-106c29-40 47-92 85-123 77-33 115 38 178 55 22 6 48 12 80 12 81 0 133-35 133-110 0-69-60-91-116-111C252-440 75-483 80-702" id="S"/><path fill="#fff" d="M680-72c-61 52-150 86-256 87-172 2-267-108-267-279v-542c-63-2-138 16-138-53v-101l151-29 53-262c11-66 119-33 188-41v306h245v180H411v525c0 54 23 90 73 93 51 3 85-62 119-7" id="T"/><g id="i"><use transform="matrix(0.01953125,0,0,0.01953125,0,0)" xlink:href="#Q"/><use transform="matrix(0.01953125,0,0,0.01953125,25.234375,0)" xlink:href="#R"/><use transform="matrix(0.01953125,0,0,0.01953125,46.73828125,0)" xlink:href="#S"/><use transform="matrix(0.01953125,0,0,0.01953125,62.24609375,0)" xlink:href="#T"/><use transform="matrix(0.01953125,0,0,0.01953125,76.11328125,0)" xlink:href="#L"/></g><path fill="#fff" d="M1048-974c0 163-99 241-224 288 171 41 257 139 257 293C1081-125 889 0 612 0H119v-1328h451c279 2 478 84 478 354zM823-399c0-131-83-178-217-178H382v373h225c139 0 216-61 216-195zm-37-542c0-143-71-185-216-185H382v368h173c140-1 231-45 231-183" id="U"/><g id="j"><use transform="matrix(0.01953125,0,0,0.01953125,0,0)" xlink:href="#Q"/><use transform="matrix(0.01953125,0,0,0.01953125,25.234375,0)" xlink:href="#R"/><use transform="matrix(0.01953125,0,0,0.01953125,46.73828125,0)" xlink:href="#S"/><use transform="matrix(0.01953125,0,0,0.01953125,62.24609375,0)" xlink:href="#T"/><use transform="matrix(0.01953125,0,0,0.01953125,76.11328125,0)" xlink:href="#U"/></g><path fill="#fff" d="M1063-193C972-66 836 14 625 14 325 14 160-160 82-392c-55-162-54-387 4-546 84-230 253-399 553-405 185-4 321 74 409 173-37 47-65 102-108 143-52 29-90-19-122-42-68-49-222-71-314-21-130 72-193 222-193 425 0 205 69 355 201 427 92 51 249 32 318-20 30-23 81-99 128-48" id="V"/><g id="k"><use transform="matrix(0.01953125,0,0,0.01953125,0,0)" xlink:href="#Q"/><use transform="matrix(0.01953125,0,0,0.01953125,25.234375,0)" xlink:href="#R"/><use transform="matrix(0.01953125,0,0,0.01953125,46.73828125,0)" xlink:href="#S"/><use transform="matrix(0.01953125,0,0,0.01953125,62.24609375,0)" xlink:href="#T"/><use transform="matrix(0.01953125,0,0,0.01953125,76.11328125,0)" xlink:href="#V"/></g><path fill="#fff" d="M1198-932c62 158 61 378 0 536C1107-162 916 0 600 0H116v-1328h484c315 6 507 163 598 396zM600-209c264-9 377-187 377-456 0-268-114-446-377-455H380v911h220" id="W"/><g id="l"><use transform="matrix(0.01953125,0,0,0.01953125,0,0)" xlink:href="#Q"/><use transform="matrix(0.01953125,0,0,0.01953125,25.234375,0)" xlink:href="#R"/><use transform="matrix(0.01953125,0,0,0.01953125,46.73828125,0)" xlink:href="#S"/><use transform="matrix(0.01953125,0,0,0.01953125,62.24609375,0)" xlink:href="#T"/><use transform="matrix(0.01953125,0,0,0.01953125,76.11328125,0)" xlink:href="#W"/></g><path fill="#fff" d="M996-1328v214H638V0H376v-1114H18v-214h978" id="X"/><g id="m"><use transform="matrix(0.010850694444444444,0,0,0.010850694444444444,0,0)" xlink:href="#X"/><use transform="matrix(0.010850694444444444,0,0,0.010850694444444444,10.514322916666666,0)" xlink:href="#V"/><use transform="matrix(0.010850694444444444,0,0,0.010850694444444444,22.276475694444443,0)" xlink:href="#F"/></g><path fill="#fff" d="M960-966c48 161 48 442 0 603C896-149 775 14 517 14 261 14 140-150 78-363c-47-161-48-443 0-603 63-213 183-377 439-377s380 165 443 377zM602-206c161-87 169-454 126-694-24-133-71-244-211-244-138 0-184 113-207 244-41 238-36 607 122 694 54 29 116 28 170 0" id="Y"/><g id="n"><use transform="matrix(0.010850694444444444,0,0,0.010850694444444444,0,0)" xlink:href="#N"/><use transform="matrix(0.010850694444444444,0,0,0.010850694444444444,11.263020833333332,0)" xlink:href="#N"/><use transform="matrix(0.010850694444444444,0,0,0.010850694444444444,22.526041666666664,0)" xlink:href="#Y"/><use transform="matrix(0.010850694444444444,0,0,0.010850694444444444,33.7890625,0)" xlink:href="#Y"/><use transform="matrix(0.010850694444444444,0,0,0.010850694444444444,45.05208333333333,0)" xlink:href="#J"/></g><g id="o"><use transform="matrix(0.010850694444444444,0,0,0.010850694444444444,0,0)" xlink:href="#N"/><use transform="matrix(0.010850694444444444,0,0,0.010850694444444444,11.263020833333332,0)" xlink:href="#N"/></g><path fill="#3a414a" d="M240-174c0 40-23 61-54 70L253 0h-59l-57-94H76V0H24v-248c93 4 217-23 216 74zM76-134c48-2 112 12 112-38 0-48-66-32-112-35v73" id="Z"/><path fill="#3a414a" d="M220-157c-53 9-28 100-34 157h-49v-107c1-27-5-49-29-50C55-147 81-57 75 0H25l-1-190h47c2 12-1 28 3 38 10-53 101-56 108 0 13-22 24-43 59-42 82 1 51 116 57 194h-49v-107c-1-25-5-48-29-50" id="aa"/><g id="p"><use transform="matrix(0.11111111111111109,0,0,0.11111111111111109,0,0)" xlink:href="#Z"/><use transform="matrix(0.11111111111111109,0,0,0.11111111111111109,28.77777777777777,0)" xlink:href="#y"/><use transform="matrix(0.11111111111111109,0,0,0.11111111111111109,50.999999999999986,0)" xlink:href="#aa"/><use transform="matrix(0.11111111111111109,0,0,0.11111111111111109,86.55555555555554,0)" xlink:href="#t"/><use transform="matrix(0.11111111111111109,0,0,0.11111111111111109,110.88888888888887,0)" xlink:href="#v"/><use transform="matrix(0.11111111111111109,0,0,0.11111111111111109,124.11111111111109,0)" xlink:href="#y"/></g><path fill="#3a414a" d="M275 0h-61l-44-196L126 0H64L0-248h53L97-49l45-199h58l43 199 44-199h52" id="ab"/><path fill="#3a414a" d="M147 0L96-86 75-71V0H25v-261h50v150l67-79h53l-66 74L201 0h-54" id="ac"/><g id="q"><use transform="matrix(0.11111111111111109,0,0,0.11111111111111109,0,0)" xlink:href="#ab"/><use transform="matrix(0.11111111111111109,0,0,0.11111111111111109,36.88888888888888,0)" xlink:href="#t"/><use transform="matrix(0.11111111111111109,0,0,0.11111111111111109,61.222222222222214,0)" xlink:href="#z"/><use transform="matrix(0.11111111111111109,0,0,0.11111111111111109,76.77777777777776,0)" xlink:href="#ac"/><use transform="matrix(0.11111111111111109,0,0,0.11111111111111109,98.99999999999997,0)" xlink:href="#D"/><use transform="matrix(0.11111111111111109,0,0,0.11111111111111109,121.22222222222217,0)" xlink:href="#v"/><use transform="matrix(0.11111111111111109,0,0,0.11111111111111109,134.4444444444444,0)" xlink:href="#w"/><use transform="matrix(0.11111111111111109,0,0,0.11111111111111109,156.66666666666663,0)" xlink:href="#v"/><use transform="matrix(0.11111111111111109,0,0,0.11111111111111109,169.88888888888886,0)" xlink:href="#x"/><use transform="matrix(0.11111111111111109,0,0,0.11111111111111109,180.99999999999997,0)" xlink:href="#t"/><use transform="matrix(0.11111111111111109,0,0,0.11111111111111109,205.33333333333331,0)" xlink:href="#u"/></g><path fill="#333" d="M169-182c-1-43-94-46-97-3 18 66 151 10 154 114 3 95-165 93-204 36-6-8-10-19-12-30l50-8c3 46 112 56 116 5-17-69-150-10-154-114-4-87 153-88 188-35 5 8 8 18 10 28" id="ad"/><path fill="#333" d="M186 0v-106H76V0H24v-248h52v99h110v-99h50V0h-50" id="ae"/><g id="r"><use transform="matrix(0.04938271604938272,0,0,0.04938271604938272,0,0)" xlink:href="#ad"/><use transform="matrix(0.04938271604938272,0,0,0.04938271604938272,11.851851851851853,0)" xlink:href="#ad"/><use transform="matrix(0.04938271604938272,0,0,0.04938271604938272,23.703703703703706,0)" xlink:href="#ae"/></g></defs></g></svg>