<svg xmlns="http://www.w3.org/2000/svg" xmlns:xlink="http://www.w3.org/1999/xlink" xmlns:lucid="lucid" width="1323.84" height="1100"><g transform="translate(-219.99999999999997 -140)" lucid:page-tab-id="0_0"><path d="M0 0h1760v1360H0z" fill="#fff"/><path d="M1266.28 600.97a5 5 0 0 1 5-5h247.56a5 5 0 0 1 5 5v111.98a5 5 0 0 1-5 5h-247.56a5 5 0 0 1-5-5z" fill="#fff" fill-opacity="0"/><path d="M1271.28 595.97a5 5 0 0 0-5 5v111.98a5 5 0 0 0 5 5h247.56a5 5 0 0 0 5-5V600.97a5 5 0 0 0-5-5z" stroke="#000" stroke-width="3" fill="#002060"/><use xlink:href="#a" transform="matrix(1,0,0,1,1283.5386704556656,612.3138138168428) translate(62.595703125 55)"/><path d="M582.04 600.97a5 5 0 0 1 5-5H834.6a5 5 0 0 1 5 5v111.98a5 5 0 0 1-5 5H587.04a5 5 0 0 1-5-5z" fill="#fff" fill-opacity="0"/><path d="M587.04 595.97a5 5 0 0 0-5 5v111.98a5 5 0 0 0 5 5H834.6a5 5 0 0 0 5-5V600.97a5 5 0 0 0-5-5z" stroke="#000" stroke-width="3" fill="#002060"/><use xlink:href="#b" transform="matrix(1,0,0,1,599.2981144952607,612.3138138168428) translate(62.595703125 55)"/><path d="M240 600.97a5 5 0 0 1 5-5h247.56a5 5 0 0 1 5 5v111.98a5 5 0 0 1-5 5H245a5 5 0 0 1-5-5z" fill="#fff" fill-opacity="0"/><path d="M245 595.97a5 5 0 0 0-5 5v111.98a5 5 0 0 0 5 5h247.56a5 5 0 0 0 5-5V600.97a5 5 0 0 0-5-5z" stroke="#000" stroke-width="3" fill="#002060"/><use xlink:href="#c" transform="matrix(1,0,0,1,257.25667253293153,612.3138138168428) translate(62.595703125 55)"/><path d="M924.24 600.97a5 5 0 0 1 5-5h247.56a5 5 0 0 1 5 5v111.98a5 5 0 0 1-5 5H929.24a5 5 0 0 1-5-5z" fill="#fff" fill-opacity="0"/><path d="M929.24 595.97a5 5 0 0 0-5 5v111.98a5 5 0 0 0 5 5h247.56a5 5 0 0 0 5-5V600.97a5 5 0 0 0-5-5z" stroke="#000" stroke-width="3" fill="#002060"/><use xlink:href="#d" transform="matrix(1,0,0,1,941.4972284933364,612.3138138168428) translate(62.595703125 55)"/><path d="M536.26 165a5 5 0 0 1 5-5h247.56a5 5 0 0 1 5 5v111.98a5 5 0 0 1-5 5H541.26a5 5 0 0 1-5-5z" fill="#fff" fill-opacity="0"/><path d="M541.26 160a5 5 0 0 0-5 5v111.98a5 5 0 0 0 5 5h247.56a5 5 0 0 0 5-5V165a5 5 0 0 0-5-5z" stroke="#000" stroke-width="3" fill="#002060"/><use xlink:href="#e" transform="matrix(1,0,0,1,553.5167487978986,176.345160875) translate(53.50390625 55)"/><path d="M969.86 165a5 5 0 0 1 5-5h247.57a5 5 0 0 1 5 5v111.98a5 5 0 0 1-5 5H974.86a5 5 0 0 1-5-5z" fill="#fff" fill-opacity="0"/><path d="M974.86 160a5 5 0 0 0-5 5v111.98a5 5 0 0 0 5 5h247.57a5 5 0 0 0 5-5V165a5 5 0 0 0-5-5z" stroke="#000" stroke-width="3" fill="#002060"/><use xlink:href="#f" transform="matrix(1,0,0,1,987.1209221549524,176.345160875) translate(53.50390625 55)"/><path d="M559.6 271.78a5 5 0 0 1 5-5h26a5 5 0 0 1 5 5v20.47a5 5 0 0 1-5 5h-26a5 5 0 0 1-5-5z" fill="#fff" fill-opacity="0"/><path d="M564.6 268a5 5 0 0 0-5 5v18.02a5 5 0 0 0 5 5h26a5 5 0 0 0 5-5v-18a5 5 0 0 0-5-5z" stroke="#6f7681" fill="#fff"/><use xlink:href="#g" transform="matrix(1,0,0,1,573.2453170774086,266.7771595581574) translate(-1.131510416666666 21.055555555555554)"/><path d="M618 271.78a5 5 0 0 1 5-5h26a5 5 0 0 1 5 5v20.47a5 5 0 0 1-5 5h-26a5 5 0 0 1-5-5z" fill="#fff" fill-opacity="0"/><path d="M623 268a5 5 0 0 0-5 5v18.02a5 5 0 0 0 5 5h26a5 5 0 0 0 5-5v-18a5 5 0 0 0-5-5z" stroke="#6f7681" fill="#fff"/><use xlink:href="#h" transform="matrix(1,0,0,1,631.6423990503185,266.7771595581574) translate(-1.131510416666666 21.055555555555554)"/><path d="M676.4 271.78a5 5 0 0 1 5-5h26a5 5 0 0 1 5 5v20.47a5 5 0 0 1-5 5h-26a5 5 0 0 1-5-5z" fill="#fff" fill-opacity="0"/><path d="M681.4 268a5 5 0 0 0-5 5v18.02a5 5 0 0 0 5 5h26a5 5 0 0 0 5-5v-18a5 5 0 0 0-5-5z" stroke="#6f7681" fill="#fff"/><use xlink:href="#i" transform="matrix(1,0,0,1,690.0394810232285,266.7771595581574) translate(-1.131510416666666 21.055555555555554)"/><path d="M734.8 271.78a5 5 0 0 1 5-5h26a5 5 0 0 1 5 5v20.47a5 5 0 0 1-5 5h-26a5 5 0 0 1-5-5z" fill="#fff" fill-opacity="0"/><path d="M739.8 268a5 5 0 0 0-5 5v18.02a5 5 0 0 0 5 5h26a5 5 0 0 0 5-5v-18a5 5 0 0 0-5-5z" stroke="#6f7681" fill="#fff"/><use xlink:href="#j" transform="matrix(1,0,0,1,748.4365629961385,266.7771595581574) translate(-1.131510416666666 21.055555555555554)"/><path d="M993.2 271.78a5 5 0 0 1 5-5h26a5 5 0 0 1 5 5v20.47a5 5 0 0 1-5 5h-26a5 5 0 0 1-5-5z" fill="#fff" fill-opacity="0"/><path d="M998.2 268a5 5 0 0 0-5 5v18.02a5 5 0 0 0 5 5h26a5 5 0 0 0 5-5v-18a5 5 0 0 0-5-5z" stroke="#6f7681" fill="#fff"/><use xlink:href="#g" transform="matrix(1,0,0,1,1006.849490434462,266.7771595581574) translate(-1.131510416666666 21.055555555555554)"/><path d="M1051.6 271.78a5 5 0 0 1 5-5h26a5 5 0 0 1 5 5v20.47a5 5 0 0 1-5 5h-26a5 5 0 0 1-5-5z" fill="#fff" fill-opacity="0"/><path d="M1056.6 268a5 5 0 0 0-5 5v18.02a5 5 0 0 0 5 5h26a5 5 0 0 0 5-5v-18a5 5 0 0 0-5-5z" stroke="#6f7681" fill="#fff"/><use xlink:href="#h" transform="matrix(1,0,0,1,1065.2465724073718,266.7771595581574) translate(-1.131510416666666 21.055555555555554)"/><path d="M1110 271.78a5 5 0 0 1 5-5h26a5 5 0 0 1 5 5v20.47a5 5 0 0 1-5 5h-26a5 5 0 0 1-5-5z" fill="#fff" fill-opacity="0"/><path d="M1115 268a5 5 0 0 0-5 5v18.02a5 5 0 0 0 5 5h26a5 5 0 0 0 5-5v-18a5 5 0 0 0-5-5z" stroke="#6f7681" fill="#fff"/><use xlink:href="#i" transform="matrix(1,0,0,1,1123.643654380282,266.7771595581574) translate(-1.131510416666666 21.055555555555554)"/><path d="M1168.4 271.78a5 5 0 0 1 5-5h26a5 5 0 0 1 5 5v20.47a5 5 0 0 1-5 5h-26a5 5 0 0 1-5-5z" fill="#fff" fill-opacity="0"/><path d="M1173.4 268a5 5 0 0 0-5 5v18.02a5 5 0 0 0 5 5h26a5 5 0 0 0 5-5v-18a5 5 0 0 0-5-5z" stroke="#6f7681" fill="#fff"/><use xlink:href="#j" transform="matrix(1,0,0,1,1182.0407363531917,266.7771595581574) translate(-1.131510416666666 21.055555555555554)"/><path d="M321.82 585a5 5 0 0 1 5-5h26a5 5 0 0 1 5 5v20.48a5 5 0 0 1-5 5h-26a5 5 0 0 1-5-5z" fill="#fff" fill-opacity="0"/><path d="M326.82 581.23a5 5 0 0 0-5 5v18a5 5 0 0 0 5 5h26a5 5 0 0 0 5-5v-18a5 5 0 0 0-5-5z" stroke="#6f7681" fill="#fff"/><use xlink:href="#g" transform="matrix(1,0,0,1,335.461686496215,580) translate(-1.131510416666666 21.055555555555554)"/><path d="M380.2 585a5 5 0 0 1 5-5h26a5 5 0 0 1 5 5v20.48a5 5 0 0 1-5 5h-26a5 5 0 0 1-5-5z" fill="#fff" fill-opacity="0"/><path d="M385.2 581.23a5 5 0 0 0-5 5v18a5 5 0 0 0 5 5h26a5 5 0 0 0 5-5v-18a5 5 0 0 0-5-5z" stroke="#6f7681" fill="#fff"/><use xlink:href="#h" transform="matrix(1,0,0,1,393.8587684691249,580) translate(-1.131510416666666 21.055555555555554)"/><path d="M663.86 585a5 5 0 0 1 5-5h26a5 5 0 0 1 5 5v20.48a5 5 0 0 1-5 5h-26a5 5 0 0 1-5-5z" fill="#fff" fill-opacity="0"/><path d="M668.86 581.23a5 5 0 0 0-5 5v18a5 5 0 0 0 5 5h26a5 5 0 0 0 5-5v-18a5 5 0 0 0-5-5z" stroke="#6f7681" fill="#fff"/><use xlink:href="#g" transform="matrix(1,0,0,1,677.5031284585441,580) translate(-1.131510416666666 21.055555555555554)"/><path d="M722.26 585a5 5 0 0 1 5-5h26a5 5 0 0 1 5 5v20.48a5 5 0 0 1-5 5h-26a5 5 0 0 1-5-5z" fill="#fff" fill-opacity="0"/><path d="M727.26 581.23a5 5 0 0 0-5 5v18a5 5 0 0 0 5 5h26a5 5 0 0 0 5-5v-18a5 5 0 0 0-5-5z" stroke="#6f7681" fill="#fff"/><use xlink:href="#h" transform="matrix(1,0,0,1,735.9002104314541,580) translate(-1.131510416666666 21.055555555555554)"/><path d="M1005.9 585a5 5 0 0 1 5-5h26a5 5 0 0 1 5 5v20.48a5 5 0 0 1-5 5h-26a5 5 0 0 1-5-5z" fill="#fff" fill-opacity="0"/><path d="M1010.9 581.23a5 5 0 0 0-5 5v18a5 5 0 0 0 5 5h26a5 5 0 0 0 5-5v-18a5 5 0 0 0-5-5z" stroke="#6f7681" fill="#fff"/><use xlink:href="#g" transform="matrix(1,0,0,1,1019.5445704208728,580) translate(-1.131510416666666 21.055555555555554)"/><path d="M1064.3 585a5 5 0 0 1 5-5h26a5 5 0 0 1 5 5v20.48a5 5 0 0 1-5 5h-26a5 5 0 0 1-5-5z" fill="#fff" fill-opacity="0"/><path d="M1069.3 581.23a5 5 0 0 0-5 5v18a5 5 0 0 0 5 5h26a5 5 0 0 0 5-5v-18a5 5 0 0 0-5-5z" stroke="#6f7681" fill="#fff"/><use xlink:href="#h" transform="matrix(1,0,0,1,1077.941652393783,580) translate(-1.131510416666666 21.055555555555554)"/><path d="M663.78 708.44a5 5 0 0 1 5-5h26a5 5 0 0 1 5 5v20.48a5 5 0 0 1-5 5h-26a5 5 0 0 1-5-5z" fill="#fff" fill-opacity="0"/><path d="M668.78 704.67a5 5 0 0 0-5 5v18a5 5 0 0 0 5 5h26a5 5 0 0 0 5-5v-18a5 5 0 0 0-5-5z" stroke="#6f7681" fill="#fff"/><use xlink:href="#k" transform="matrix(1,0,0,1,677.4237647476809,703.4390625000001) translate(-1.131510416666666 21.055555555555554)"/><path d="M722.18 708.44a5 5 0 0 1 5-5h26a5 5 0 0 1 5 5v20.48a5 5 0 0 1-5 5h-26a5 5 0 0 1-5-5z" fill="#fff" fill-opacity="0"/><path d="M727.18 704.67a5 5 0 0 0-5 5v18a5 5 0 0 0 5 5h26a5 5 0 0 0 5-5v-18a5 5 0 0 0-5-5z" stroke="#6f7681" fill="#fff"/><use xlink:href="#l" transform="matrix(1,0,0,1,735.8208467205908,703.4390625000001) translate(-1.131510416666666 21.055555555555554)"/><path d="M1005.82 708.44a5 5 0 0 1 5-5h26a5 5 0 0 1 5 5v20.48a5 5 0 0 1-5 5h-26a5 5 0 0 1-5-5z" fill="#fff" fill-opacity="0"/><path d="M1010.82 704.67a5 5 0 0 0-5 5v18a5 5 0 0 0 5 5h26a5 5 0 0 0 5-5v-18a5 5 0 0 0-5-5z" stroke="#6f7681" fill="#fff"/><use xlink:href="#k" transform="matrix(1,0,0,1,1019.4652067100099,703.4390625000001) translate(-1.131510416666666 21.055555555555554)"/><path d="M1064.22 708.44a5 5 0 0 1 5-5h26a5 5 0 0 1 5 5v20.48a5 5 0 0 1-5 5h-26a5 5 0 0 1-5-5z" fill="#fff" fill-opacity="0"/><path d="M1069.22 704.67a5 5 0 0 0-5 5v18a5 5 0 0 0 5 5h26a5 5 0 0 0 5-5v-18a5 5 0 0 0-5-5z" stroke="#6f7681" fill="#fff"/><use xlink:href="#l" transform="matrix(1,0,0,1,1077.86228868292,703.4390625000001) translate(-1.131510416666666 21.055555555555554)"/><path d="M321.8 708.1a5 5 0 0 1 5-5h26a5 5 0 0 1 5 5v20.5a5 5 0 0 1-5 5h-26a5 5 0 0 1-5-5z" fill="#fff" fill-opacity="0"/><path d="M326.8 704.34a5 5 0 0 0-5 5v18a5 5 0 0 0 5 5h26a5 5 0 0 0 5-5v-18a5 5 0 0 0-5-5z" stroke="#6f7681" fill="#fff"/><use xlink:href="#k" transform="matrix(1,0,0,1,335.42923153087503,703.11015625) translate(-1.131510416666666 21.055555555555554)"/><path d="M380.18 708.1a5 5 0 0 1 5-5h26a5 5 0 0 1 5 5v20.5a5 5 0 0 1-5 5h-26a5 5 0 0 1-5-5z" fill="#fff" fill-opacity="0"/><path d="M385.18 704.34a5 5 0 0 0-5 5v18a5 5 0 0 0 5 5h26a5 5 0 0 0 5-5v-18a5 5 0 0 0-5-5z" stroke="#6f7681" fill="#fff"/><use xlink:href="#l" transform="matrix(1,0,0,1,393.82631350378506,703.11015625) translate(-1.131510416666666 21.055555555555554)"/><path d="M1347.82 708.08a5 5 0 0 1 5-5h26a5 5 0 0 1 5 5v20.48a5 5 0 0 1-5 5h-26a5 5 0 0 1-5-5z" fill="#fff" fill-opacity="0"/><path d="M1352.82 704.3a5 5 0 0 0-5 5v18.02a5 5 0 0 0 5 5h26a5 5 0 0 0 5-5v-18a5 5 0 0 0-5-5z" stroke="#6f7681" fill="#fff"/><use xlink:href="#k" transform="matrix(1,0,0,1,1361.461686496215,703.07890625) translate(-1.131510416666666 21.055555555555554)"/><path d="M1406.2 708.08a5 5 0 0 1 5-5h26a5 5 0 0 1 5 5v20.48a5 5 0 0 1-5 5h-26a5 5 0 0 1-5-5z" fill="#fff" fill-opacity="0"/><path d="M1411.2 704.3a5 5 0 0 0-5 5v18.02a5 5 0 0 0 5 5h26a5 5 0 0 0 5-5v-18a5 5 0 0 0-5-5z" stroke="#6f7681" fill="#fff"/><use xlink:href="#l" transform="matrix(1,0,0,1,1419.8587684691252,703.07890625) translate(-1.131510416666666 21.055555555555554)"/><path d="M1347.87 585a5 5 0 0 1 5-5h26a5 5 0 0 1 5 5v20.48a5 5 0 0 1-5 5h-26a5 5 0 0 1-5-5z" fill="#fff" fill-opacity="0"/><path d="M1352.87 581.23a5 5 0 0 0-5 5v18a5 5 0 0 0 5 5h26a5 5 0 0 0 5-5v-18a5 5 0 0 0-5-5z" stroke="#6f7681" fill="#fff"/><use xlink:href="#g" transform="matrix(1,0,0,1,1361.5085952417385,580) translate(-1.131510416666666 21.055555555555554)"/><path d="M1406.26 585a5 5 0 0 1 5-5h26a5 5 0 0 1 5 5v20.48a5 5 0 0 1-5 5h-26a5 5 0 0 1-5-5z" fill="#fff" fill-opacity="0"/><path d="M1411.26 581.23a5 5 0 0 0-5 5v18a5 5 0 0 0 5 5h26a5 5 0 0 0 5-5v-18a5 5 0 0 0-5-5z" stroke="#6f7681" fill="#fff"/><use xlink:href="#h" transform="matrix(1,0,0,1,1419.9056772146484,580) translate(-1.131510416666666 21.055555555555554)"/><path d="M517.32 641.04h44.2" stroke="#6f7681" stroke-width="4" fill="none"/><path d="M517.37 643.04h-2.05v-4h2.05zM563.53 643.04h-2.05v-4h2.05z" stroke="#6f7681" stroke-width=".05" fill="#6f7681"/><path d="M478.82 630.8a5 5 0 0 1 5-5h26a5 5 0 0 1 5 5v20.48a5 5 0 0 1-5 5h-26a5 5 0 0 1-5-5z" fill="#fff" fill-opacity="0"/><path d="M483.82 627.03a5 5 0 0 0-5 5v18.02a5 5 0 0 0 5 5h26a5 5 0 0 0 5-5v-18.02a5 5 0 0 0-5-5z" stroke="#6f7681" fill="#fff"/><use xlink:href="#i" transform="matrix(1,0,0,1,492.46168649621507,625.8013158081575) translate(-1.131510416666666 21.055555555555554)"/><path d="M564.03 630.8a5 5 0 0 1 5-5h26a5 5 0 0 1 5 5v20.48a5 5 0 0 1-5 5h-26a5 5 0 0 1-5-5z" fill="#fff" fill-opacity="0"/><path d="M569.03 627.03a5 5 0 0 0-5 5v18.02a5 5 0 0 0 5 5h26a5 5 0 0 0 5-5v-18.02a5 5 0 0 0-5-5z" stroke="#6f7681" fill="#fff"/><use xlink:href="#i" transform="matrix(1,0,0,1,577.6786016498833,625.8013158081575) translate(-1.131510416666666 21.055555555555554)"/><path d="M517.87 672.88h44.22" stroke="#6f7681" stroke-width="4" fill="none"/><path d="M517.92 674.88h-2.05v-4h2.05zM564.1 674.88h-2.06v-4h2.05z" stroke="#6f7681" stroke-width=".05" fill="#6f7681"/><path d="M479.37 662.64a5 5 0 0 1 5-5h26a5 5 0 0 1 5 5v20.48a5 5 0 0 1-5 5h-26a5 5 0 0 1-5-5z" fill="#fff" fill-opacity="0"/><path d="M484.37 658.87a5 5 0 0 0-5 5v18a5 5 0 0 0 5 5h26a5 5 0 0 0 5-5v-18a5 5 0 0 0-5-5z" stroke="#6f7681" fill="#fff"/><use xlink:href="#j" transform="matrix(1,0,0,1,493.0165815488989,657.6377466918427) translate(-1.131510416666666 21.055555555555554)"/><path d="M564.6 662.64a5 5 0 0 1 5-5h26a5 5 0 0 1 5 5v20.48a5 5 0 0 1-5 5h-26a5 5 0 0 1-5-5z" fill="#fff" fill-opacity="0"/><path d="M569.6 658.87a5 5 0 0 0-5 5v18a5 5 0 0 0 5 5h26a5 5 0 0 0 5-5v-18a5 5 0 0 0-5-5z" stroke="#6f7681" fill="#fff"/><use xlink:href="#j" transform="matrix(1,0,0,1,578.2334967025672,657.6377466918427) translate(-1.131510416666666 21.055555555555554)"/><path d="M1202.5 641.57h44.22" stroke="#6f7681" stroke-width="4" fill="none"/><path d="M1202.55 643.57h-2.05v-4h2.05zM1248.72 643.57h-2.05v-4h2.05z" stroke="#6f7681" stroke-width=".05" fill="#6f7681"/><path d="M1164 631.33a5 5 0 0 1 5-5h26a5 5 0 0 1 5 5v20.48a5 5 0 0 1-5 5h-26a5 5 0 0 1-5-5z" fill="#fff" fill-opacity="0"/><path d="M1169 627.57a5 5 0 0 0-5 5v18a5 5 0 0 0 5 5h26a5 5 0 0 0 5-5v-18a5 5 0 0 0-5-5z" stroke="#6f7681" fill="#fff"/><use xlink:href="#i" transform="matrix(1,0,0,1,1177.6439999999998,626.3330591918427) translate(-1.131510416666666 21.055555555555554)"/><path d="M1249.22 631.33a5 5 0 0 1 5-5h26a5 5 0 0 1 5 5v20.48a5 5 0 0 1-5 5h-26a5 5 0 0 1-5-5z" fill="#fff" fill-opacity="0"/><path d="M1254.22 627.57a5 5 0 0 0-5 5v18a5 5 0 0 0 5 5h26a5 5 0 0 0 5-5v-18a5 5 0 0 0-5-5z" stroke="#6f7681" fill="#fff"/><use xlink:href="#i" transform="matrix(1,0,0,1,1262.8609151536682,626.3330591918427) translate(-1.131510416666666 21.055555555555554)"/><path d="M1203.06 673.4h44.2" stroke="#6f7681" stroke-width="4" fill="none"/><path d="M1203.1 675.4h-2.04v-4h2.05zM1249.27 675.4h-2.05v-4h2.05z" stroke="#6f7681" stroke-width=".05" fill="#6f7681"/><path d="M1164.56 663.17a5 5 0 0 1 5-5h26a5 5 0 0 1 5 5v20.48a5 5 0 0 1-5 5h-26a5 5 0 0 1-5-5z" fill="#fff" fill-opacity="0"/><path d="M1169.56 659.4a5 5 0 0 0-5 5v18a5 5 0 0 0 5 5h26a5 5 0 0 0 5-5v-18a5 5 0 0 0-5-5z" stroke="#6f7681" fill="#fff"/><use xlink:href="#j" transform="matrix(1,0,0,1,1178.1988950526838,658.1694900755281) translate(-1.131510416666666 21.055555555555554)"/><path d="M1249.77 663.17a5 5 0 0 1 5-5h26a5 5 0 0 1 5 5v20.48a5 5 0 0 1-5 5h-26a5 5 0 0 1-5-5z" fill="#fff" fill-opacity="0"/><path d="M1254.77 659.4a5 5 0 0 0-5 5v18a5 5 0 0 0 5 5h26a5 5 0 0 0 5-5v-18a5 5 0 0 0-5-5z" stroke="#6f7681" fill="#fff"/><use xlink:href="#j" transform="matrix(1,0,0,1,1263.415810206352,658.1694900755281) translate(-1.131510416666666 21.055555555555554)"/><g filter="url(#m)"><path d="M388.7 988.83a5 5 0 0 1-5 5h-87.77a5 5 0 0 1-5-5v-110a5 5 0 0 1 5-5h87.78a5 5 0 0 1 5 5z" fill="#fff" fill-opacity="0"/><path d="M383.7 993.83a5 5 0 0 0 5-5v-110a5 5 0 0 0-5-5h-87.77a5 5 0 0 0-5 5v110a5 5 0 0 0 5 5z" fill="#1071e5"/><g><use xlink:href="#n" transform="matrix(1,-2.4492935982947064e-16,2.4492935982947064e-16,1,296.6943993910992,887.8698716918427) translate(27.61024305555556 87.55555555555556)"/></g></g><g filter="url(#o)"><path d="M298.06 887.57a5 5 0 0 1 5-5h73.5a5 5 0 0 1 5 5v58.08a5 5 0 0 1-5 5h-73.5a5 5 0 0 1-5-5z" fill="#fff" fill-opacity="0"/><path d="M303.06 882.57a5 5 0 0 0-5 5v58.08a5 5 0 0 0 5 5h73.5a5 5 0 0 0 5-5v-58.08a5 5 0 0 0-5-5z" stroke="#000" stroke-width="3" fill="#002060"/><use xlink:href="#p" transform="matrix(1,0,0,1,302.9065503532991,890.5366559123626) translate(28.920572916666664 33.166666666666664)"/></g><path d="M511.6 1060h107.95v40H511.6z" fill="#002060"/><path d="M619.55 1060H727.5v40H619.55zM727.5 1060h199v40h-199zM926.5 1060h106v40h-106zM1032.5 1060h107.95v40H1032.5z" fill="#002060"/><path d="M1140.45 1060h107.94v40h-107.95z" fill="#002060"/><path d="M511.6 1100h107.95v40H511.6z" fill="#fff"/><path d="M619.55 1100H727.5v40H619.55zM727.5 1100h199v40h-199zM926.5 1100h106v40h-106zM1032.5 1100h107.95v40H1032.5z" fill="#fff"/><path d="M1140.45 1100h107.94v40h-107.95z" fill="#1071e5"/><path d="M511.6 1140h107.95v40H511.6z" fill="#ced4db"/><path d="M619.55 1140H727.5v40H619.55zM727.5 1140h199v40h-199zM926.5 1140h106v40h-106zM1032.5 1140h107.95v40H1032.5z" fill="#ced4db"/><path d="M1140.45 1140h107.94v40h-107.95z" fill="#00b050"/><path d="M511.6 1180h107.95v40H511.6z" fill="#fff"/><path d="M619.55 1180H727.5v40H619.55zM727.5 1180h199v40h-199zM926.5 1180h106v40h-106zM1032.5 1180h107.95v40H1032.5z" fill="#fff"/><path d="M1140.45 1180h107.94v40h-107.95z" fill="#fc9432"/><path d="M511.6 1060v40M619.55 1060v40M727.5 1060v40M926.5 1060v40M1032.5 1060v40M1140.45 1060v40M1248.4 1060v40M511.6 1100v40M619.55 1100v40M727.5 1100v40M926.5 1100v40M1032.5 1100v40M1140.45 1100v40M1248.4 1100v40M511.6 1140v40M619.55 1140v40M727.5 1140v40M926.5 1140v40M1032.5 1140v40M1140.45 1140v40M1248.4 1140v40M511.6 1180v40M619.55 1180v40M727.5 1180v40M926.5 1180v40M1032.5 1180v40M1140.45 1180v40M1248.4 1180v40M511.6 1060h107.95M619.55 1060H727.5M727.5 1060h199M926.5 1060h106M1032.5 1060h107.95M1140.45 1060h107.94M511.6 1100h107.95M619.55 1100H727.5M727.5 1100h199M926.5 1100h106M1032.5 1100h107.95M1140.45 1100h107.94M511.6 1140h107.95M619.55 1140H727.5M727.5 1140h199M926.5 1140h106M1032.5 1140h107.95M1140.45 1140h107.94M511.6 1180h107.95M511.6 1220h107.95M619.55 1180H727.5M619.55 1220H727.5M727.5 1180h199M727.5 1220h199M926.5 1180h106M926.5 1220h106M1032.5 1180h107.95M1032.5 1220h107.95M1140.45 1180h107.94M1140.45 1220h107.94" stroke="#5e5e5e" fill="none"/><use xlink:href="#q" transform="matrix(1,0,0,1,516.6069483773487,1065) translate(18.845679012345684 19.444444444444443)"/><use xlink:href="#r" transform="matrix(1,0,0,1,624.5534741886743,1065) translate(17.580246913580247 19.444444444444443)"/><use xlink:href="#s" transform="matrix(1,0,0,1,732.5,1065) translate(56.96913580246913 19.444444444444443)"/><use xlink:href="#t" transform="matrix(1,0,0,1,931.5,1065) translate(25.839506172839506 19.444444444444443)"/><use xlink:href="#u" transform="matrix(1,0,0,1,1037.5,1065) translate(17.580246913580247 19.444444444444443)"/><use xlink:href="#v" transform="matrix(1,0,0,1,1145.4465258113255,1065) translate(20.080246913580247 19.444444444444443)"/><use xlink:href="#w" transform="matrix(1,0,0,1,516.6069483773487,1105) translate(36.65432098765432 19.444444444444443)"/><use xlink:href="#x" transform="matrix(1,0,0,1,624.5534741886743,1105) translate(18.135802469135804 19.444444444444443)"/><use xlink:href="#y" transform="matrix(1,0,0,1,732.5,1105) translate(26.59876543209876 19.444444444444443)"/><use xlink:href="#z" transform="matrix(1,0,0,1,931.5,1105) translate(40.592592592592595 19.444444444444443)"/><use xlink:href="#A" transform="matrix(1,0,0,1,1037.5,1105) translate(18.135802469135804 19.444444444444443)"/><use xlink:href="#B" transform="matrix(1,0,0,1,516.6069483773487,1145) translate(36.65432098765432 19.444444444444443)"/><use xlink:href="#C" transform="matrix(1,0,0,1,624.5534741886743,1145) translate(18.135802469135804 19.444444444444443)"/><use xlink:href="#D" transform="matrix(1,0,0,1,732.5,1145) translate(26.59876543209876 19.444444444444443)"/><use xlink:href="#z" transform="matrix(1,0,0,1,931.5,1145) translate(40.592592592592595 19.444444444444443)"/><use xlink:href="#A" transform="matrix(1,0,0,1,1037.5,1145) translate(18.135802469135804 19.444444444444443)"/><use xlink:href="#E" transform="matrix(1,0,0,1,516.6069483773487,1185) translate(36.65432098765432 19.444444444444443)"/><use xlink:href="#F" transform="matrix(1,0,0,1,624.5534741886743,1185) translate(18.135802469135804 19.444444444444443)"/><use xlink:href="#G" transform="matrix(1,0,0,1,732.5,1185) translate(26.59876543209876 19.444444444444443)"/><use xlink:href="#z" transform="matrix(1,0,0,1,931.5,1185) translate(40.592592592592595 19.444444444444443)"/><use xlink:href="#A" transform="matrix(1,0,0,1,1037.5,1185) translate(18.135802469135804 19.444444444444443)"/><path d="M339.8 735.6v143.47" stroke="#6f7681" stroke-width="4" fill="none"/><path d="M341.8 735.64h-4v-2.05h4zM341.8 881.07h-4v-2.05h4z" stroke="#6f7681" stroke-width=".05" fill="#6f7681"/><path d="M661.78 730.25L384.8 890.57" stroke="#6f7681" stroke-width="4" fill="none"/><path d="M663.28 727.7l.07.84.2.84.33.8.13.2.02.08.27.65-1.56.9-2-3.45 2.54-1.47zM385.85 892.28l-2.78 1.6v-4.62l.78-.44z" stroke="#6f7681" stroke-width=".05" fill="#6f7681"/><g filter="url(#m)"><path d="M789.07 988.83a5 5 0 0 1-5 5h-87.8a5 5 0 0 1-5-5v-110a5 5 0 0 1 5-5h87.8a5 5 0 0 1 5 5z" fill="#fff" fill-opacity="0"/><path d="M784.07 993.83a5 5 0 0 0 5-5v-110a5 5 0 0 0-5-5h-87.8a5 5 0 0 0-5 5v110a5 5 0 0 0 5 5z" fill="#00b050"/><g><use xlink:href="#n" transform="matrix(1,-2.4492935982947064e-16,2.4492935982947064e-16,1,697.0535596154749,887.8698716918428) translate(27.61024305555556 87.55555555555556)"/></g></g><g filter="url(#o)"><path d="M698.42 887.57a5 5 0 0 1 5-5h73.5a5 5 0 0 1 5 5v58.08a5 5 0 0 1-5 5h-73.5a5 5 0 0 1-5-5z" fill="#fff" fill-opacity="0"/><path d="M703.42 882.57a5 5 0 0 0-5 5v58.08a5 5 0 0 0 5 5h73.5a5 5 0 0 0 5-5v-58.08a5 5 0 0 0-5-5z" stroke="#000" stroke-width="3" fill="#002060"/><use xlink:href="#H" transform="matrix(1,0,0,1,703.2657105776749,890.5366559123626) translate(29.526041666666664 33.166666666666664)"/></g><path d="M418.17 729.94l277.02 160.6" stroke="#6f7681" stroke-width="4" fill="none"/><path d="M419.22 728.23l-2 3.46-1.56-.9.28-.67v-.06l.14-.22.34-.8.2-.83.06-.85v-.6zM696.92 889.22v4.63l-2.77-1.6 2-3.47z" stroke="#6f7681" stroke-width=".05" fill="#6f7681"/><path d="M740.18 735.92v143.15" stroke="#6f7681" stroke-width="4" fill="none"/><path d="M742.18 735.97h-4v-2.05h4zM742.18 881.07h-4v-2.05h4z" stroke="#6f7681" stroke-width=".05" fill="#6f7681"/><g filter="url(#m)"><path d="M1072.8 988.83a5 5 0 0 1-5 5H980a5 5 0 0 1-5-5v-110a5 5 0 0 1 5-5h87.8a5 5 0 0 1 5 5z" fill="#fff" fill-opacity="0"/><path d="M1067.8 993.83a5 5 0 0 0 5-5v-110a5 5 0 0 0-5-5H980a5 5 0 0 0-5 5v110a5 5 0 0 0 5 5z" fill="#1071e5"/><g><use xlink:href="#I" transform="matrix(1,-2.4492935982947064e-16,2.4492935982947064e-16,1,980.7772833157569,887.8698716918428) translate(27.61024305555556 87.55555555555556)"/></g></g><g filter="url(#o)"><path d="M982.15 887.57a5 5 0 0 1 5-5h73.5a5 5 0 0 1 5 5v58.08a5 5 0 0 1-5 5h-73.5a5 5 0 0 1-5-5z" fill="#fff" fill-opacity="0"/><path d="M987.15 882.57a5 5 0 0 0-5 5v58.08a5 5 0 0 0 5 5h73.5a5 5 0 0 0 5-5v-58.08a5 5 0 0 0-5-5z" stroke="#000" stroke-width="3" fill="#002060"/><use xlink:href="#J" transform="matrix(1,0,0,1,986.989434277957,890.5366559123626) translate(29.942708333333332 33.166666666666664)"/></g><g filter="url(#m)"><path d="M1473.15 988.83a5 5 0 0 1-5 5h-87.78a5 5 0 0 1-5-5v-110a5 5 0 0 1 5-5h87.78a5 5 0 0 1 5 5z" fill="#fff" fill-opacity="0"/><path d="M1468.15 993.83a5 5 0 0 0 5-5v-110a5 5 0 0 0-5-5h-87.78a5 5 0 0 0-5 5v110a5 5 0 0 0 5 5z" fill="#fc9432"/><g><use xlink:href="#n" transform="matrix(1,-2.4492935982947064e-16,2.4492935982947064e-16,1,1381.1383901095323,887.869871691843) translate(27.61024305555556 87.55555555555556)"/></g></g><g filter="url(#o)"><path d="M1382.5 887.57a5 5 0 0 1 5-5h73.52a5 5 0 0 1 5 5v58.08a5 5 0 0 1-5 5h-73.5a5 5 0 0 1-5-5z" fill="#fff" fill-opacity="0"/><path d="M1387.5 882.57a5 5 0 0 0-5 5v58.08a5 5 0 0 0 5 5h73.52a5 5 0 0 0 5-5v-58.08a5 5 0 0 0-5-5z" stroke="#000" stroke-width="3" fill="#002060"/><use xlink:href="#K" transform="matrix(1,0,0,1,1387.3505410717326,890.5366559123626) translate(28.595052083333332 33.166666666666664)"/></g><path d="M1023.83 735.92l.06 143.15" stroke="#6f7681" stroke-width="4" fill="none"/><path d="M1025.83 735.97h-4v-2.05h4zM1025.9 881.07h-4v-2.05h4z" stroke="#6f7681" stroke-width=".05" fill="#6f7681"/><path d="M1345.83 729.9L1068.9 890.53" stroke="#6f7681" stroke-width="4" fill="none"/><path d="M1347.32 727.34l.06.84.2.84.34.8.13.2v.08l.3.67-1.56.9-2.02-3.46 2.54-1.47zM1069.93 892.23l-2.78 1.6v-4.62l.78-.43z" stroke="#6f7681" stroke-width=".05" fill="#6f7681"/><path d="M1102.2 730.25l277.08 160.33" stroke="#6f7681" stroke-width="4" fill="none"/><path d="M1103.26 728.54l-2 3.47-1.55-.9.27-.64.02-.07.12-.22.33-.8.2-.84.07-.84v-.63zM1381 889.27v4.62l-2.77-1.62 2-3.46z" stroke="#6f7681" stroke-width=".05" fill="#6f7681"/><path d="M1424.22 735.56l.03 143.5" stroke="#6f7681" stroke-width="4" fill="none"/><path d="M1426.22 735.6h-4v-2.04h4zM1426.25 881.07h-4v-2.05h4z" stroke="#6f7681" stroke-width=".05" fill="#6f7681"/><path d="M564.82 298.85L352.6 578.4" stroke="#6f7681" stroke-width="4" fill="none"/><path d="M563.82 297.2l.78.05h3.94l-2.15 2.85-3.2-2.42.4-.54zM354.22 579.58l-.4.53-.22-.04-.78-.06h-3.94l2.15-2.84z" stroke="#6f7681" stroke-width=".05" fill="#6f7681"/><path d="M638.52 299.23l40.82 278.8" stroke="#6f7681" stroke-width="4" fill="none"/><path d="M640.5 299l-3.95.57-.34-2.32h4.05zM681.65 580h-4.04l-.25-1.74 3.96-.58z" stroke="#6f7681" stroke-width=".05" fill="#6f7681"/><path d="M711.23 298.02l295.84 281.22" stroke="#6f7681" stroke-width="4" fill="none"/><path d="M712.64 296.6l-2.75 2.9-2.4-2.25.68-.06.76-.2.72-.3.67-.4.6-.5.4-.46zM1010.78 580l-.66.06-.76.2-.73.28-.67.42-.6.5-.38.45-1.33-1.25 2.76-2.9z" stroke="#6f7681" stroke-width=".05" fill="#6f7681"/><path d="M773.04 292.36l572.58 292.53" stroke="#6f7681" stroke-width="4" fill="none"/><path d="M774 290.6l-1.82 3.56-1.45-.73.3-.7.2-.85.06-.84v-1.82zM1347.92 583.83l-.3.7-.2.84-.06.84v1.83l-2.7-1.38 1.82-3.56z" stroke="#6f7681" stroke-width=".05" fill="#6f7681"/><path d="M990.96 292.36L418.46 584.9" stroke="#6f7681" stroke-width="4" fill="none"/><path d="M992.7 291.04l.07.84.2.84.3.7-1.45.75-1.82-3.56 2.7-1.38zM419.42 586.65l-2.7 1.38v-1.82l-.07-.83-.2-.84-.3-.7 1.45-.74z" stroke="#6f7681" stroke-width=".05" fill="#6f7681"/><path d="M1052.77 298.02L757.1 579.22" stroke="#6f7681" stroke-width="4" fill="none"/><path d="M1053.07 295.8l.6.5.66.4.73.3.76.2.67.05-2.38 2.25-2.76-2.9 1.33-1.26zM758.5 580.65l-1.33 1.26-.38-.44-.6-.5-.67-.42-.73-.3-.76-.18-.67-.05 2.37-2.25z" stroke="#6f7681" stroke-width=".05" fill="#6f7681"/><path d="M1125.5 299.23l-40.7 278.8" stroke="#6f7681" stroke-width="4" fill="none"/><path d="M1127.46 299.57l-3.96-.57.26-1.75h4.04zM1086.8 578.26l-.26 1.74h-4.04l.34-2.32z" stroke="#6f7681" stroke-width=".05" fill="#6f7681"/><path d="M1199.18 298.85l212.3 279.56" stroke="#6f7681" stroke-width="4" fill="none"/><path d="M1200.8 297.68l-3.18 2.42-2.16-2.85h3.94l.78-.06.2-.06zM1415.2 580h-3.94l-.78.06-.22.05-.4-.52 3.18-2.42z" stroke="#6f7681" stroke-width=".05" fill="#6f7681"/><defs><path fill="#fff" d="M371-216h461V0H108v-1328h263v1112" id="L"/><path fill="#fff" d="M928-1328v209H382v351h425v201H382v358h547L928 0H118v-1328h810" id="M"/><path fill="#fff" d="M1240 0h-202c-47 1-76-24-87-58l-84-261H378L295-59c-11 29-44 59-86 59H4l484-1328h268zM437-503h370c-61-196-127-384-186-583-56 202-123 386-184 583" id="N"/><path fill="#fff" d="M890-1328v209H373v376h433v209H373V0H109v-1328h781" id="O"/><path fill="#fff" d="M1007-505c-9 70 29 185-49 186H854V0H644v-319H105c-83-4-69-108-90-173l609-837h230v824h153zm-363 0c3-182-8-376 8-546L269-505h375" id="P"/><g id="a"><use transform="matrix(0.01953125,0,0,0.01953125,0,0)" xlink:href="#L"/><use transform="matrix(0.01953125,0,0,0.01953125,16.9140625,0)" xlink:href="#M"/><use transform="matrix(0.01953125,0,0,0.01953125,35.9375,0)" xlink:href="#N"/><use transform="matrix(0.01953125,0,0,0.01953125,60.17578125,0)" xlink:href="#O"/><use transform="matrix(0.01953125,0,0,0.01953125,78.53515625,0)" xlink:href="#P"/></g><path fill="#fff" d="M89-955c40-238 181-388 449-388 250 0 409 134 409 381 0 232-139 347-258 472L407-195c126-46 310-24 475-29 49-1 86 32 85 80V0H69c-2-76 0-138 43-180 161-160 326-321 472-494 63-74 110-153 115-281 6-143-107-217-242-175-61 19-100 69-121 131-19 56-46 79-119 66" id="Q"/><g id="b"><use transform="matrix(0.01953125,0,0,0.01953125,0,0)" xlink:href="#L"/><use transform="matrix(0.01953125,0,0,0.01953125,16.9140625,0)" xlink:href="#M"/><use transform="matrix(0.01953125,0,0,0.01953125,35.9375,0)" xlink:href="#N"/><use transform="matrix(0.01953125,0,0,0.01953125,60.17578125,0)" xlink:href="#O"/><use transform="matrix(0.01953125,0,0,0.01953125,78.53515625,0)" xlink:href="#Q"/></g><path fill="#fff" d="M236-180h257c2-279-3-565 3-840L323-871c-27 30-91 18-110-9l-76-104 399-346h198v1150h227V0H236v-180" id="R"/><g id="c"><use transform="matrix(0.01953125,0,0,0.01953125,0,0)" xlink:href="#L"/><use transform="matrix(0.01953125,0,0,0.01953125,16.9140625,0)" xlink:href="#M"/><use transform="matrix(0.01953125,0,0,0.01953125,35.9375,0)" xlink:href="#N"/><use transform="matrix(0.01953125,0,0,0.01953125,60.17578125,0)" xlink:href="#O"/><use transform="matrix(0.01953125,0,0,0.01953125,78.53515625,0)" xlink:href="#R"/></g><path fill="#fff" d="M113-955c38-239 181-388 448-388 186 0 310 81 369 209 18 42 27 87 27 134 1 168-77 256-203 297 151 51 227 154 227 307C981-126 800 8 532 14 260 20 143-131 76-338c63-25 186-102 236-14 46 82 93 164 218 164 130 0 203-76 210-200 9-175-112-206-288-206v-171c158-2 269-37 269-193 0-117-60-182-173-183-99-1-165 67-190 142-19 57-44 79-118 66" id="S"/><g id="d"><use transform="matrix(0.01953125,0,0,0.01953125,0,0)" xlink:href="#L"/><use transform="matrix(0.01953125,0,0,0.01953125,16.9140625,0)" xlink:href="#M"/><use transform="matrix(0.01953125,0,0,0.01953125,35.9375,0)" xlink:href="#N"/><use transform="matrix(0.01953125,0,0,0.01953125,60.17578125,0)" xlink:href="#O"/><use transform="matrix(0.01953125,0,0,0.01953125,78.53515625,0)" xlink:href="#S"/></g><path fill="#fff" d="M469-200c119 0 194-62 190-182-5-155-165-165-285-207C212-646 83-736 88-958c4-182 105-295 242-352 113-48 278-41 392 4 65 25 120 59 166 104l-67 124c-13 37-61 47-98 23-55-35-117-75-210-75-111 0-181 57-181 159 0 146 173 155 287 201 153 61 292 138 287 351-7 273-167 433-444 433-190 0-326-77-424-175l78-125c18-34 71-42 108-14 63 47 132 100 245 100" id="T"/><path fill="#fff" d="M1037-902c0 300-189 436-495 441H378V0H115v-1328h427c303 4 495 131 495 426zm-263 0c0-143-81-224-232-224H378v461h164c156 2 232-87 232-237" id="U"/><path fill="#fff" d="M405 0H141v-1328h264V0" id="V"/><path fill="#fff" d="M122-1328c70 6 164-16 206 20 6 5 13 12 20 21l654 862c-4-44-6-86-6-125v-778h231V0c-62-4-141 10-187-10-14-6-27-18-40-35L348-902c4 41 6 80 6 115V0H122v-1328" id="W"/><g id="e"><use transform="matrix(0.01953125,0,0,0.01953125,0,0)" xlink:href="#T"/><use transform="matrix(0.01953125,0,0,0.01953125,18.90625,0)" xlink:href="#U"/><use transform="matrix(0.01953125,0,0,0.01953125,40.1953125,0)" xlink:href="#V"/><use transform="matrix(0.01953125,0,0,0.01953125,50.859375,0)" xlink:href="#W"/><use transform="matrix(0.01953125,0,0,0.01953125,77.20703125,0)" xlink:href="#M"/><use transform="matrix(0.01953125,0,0,0.01953125,96.71875,0)" xlink:href="#R"/></g><g id="f"><use transform="matrix(0.01953125,0,0,0.01953125,0,0)" xlink:href="#T"/><use transform="matrix(0.01953125,0,0,0.01953125,18.90625,0)" xlink:href="#U"/><use transform="matrix(0.01953125,0,0,0.01953125,40.1953125,0)" xlink:href="#V"/><use transform="matrix(0.01953125,0,0,0.01953125,50.859375,0)" xlink:href="#W"/><use transform="matrix(0.01953125,0,0,0.01953125,77.20703125,0)" xlink:href="#M"/><use transform="matrix(0.01953125,0,0,0.01953125,96.71875,0)" xlink:href="#Q"/></g><path d="M236-180h257c2-279-3-565 3-840L323-871c-27 30-91 18-110-9l-76-104 399-346h198v1150h227V0H236v-180" id="X"/><use transform="matrix(0.010850694444444444,0,0,0.010850694444444444,0,0)" xlink:href="#X" id="g"/><path d="M89-955c40-238 181-388 449-388 250 0 409 134 409 381 0 232-139 347-258 472L407-195c126-46 310-24 475-29 49-1 86 32 85 80V0H69c-2-76 0-138 43-180 161-160 326-321 472-494 63-74 110-153 115-281 6-143-107-217-242-175-61 19-100 69-121 131-19 56-46 79-119 66" id="Y"/><use transform="matrix(0.010850694444444444,0,0,0.010850694444444444,0,0)" xlink:href="#Y" id="h"/><path d="M113-955c38-239 181-388 448-388 186 0 310 81 369 209 18 42 27 87 27 134 1 168-77 256-203 297 151 51 227 154 227 307C981-126 800 8 532 14 260 20 143-131 76-338c63-25 186-102 236-14 46 82 93 164 218 164 130 0 203-76 210-200 9-175-112-206-288-206v-171c158-2 269-37 269-193 0-117-60-182-173-183-99-1-165 67-190 142-19 57-44 79-118 66" id="Z"/><use transform="matrix(0.010850694444444444,0,0,0.010850694444444444,0,0)" xlink:href="#Z" id="i"/><path d="M1007-505c-9 70 29 185-49 186H854V0H644v-319H105c-83-4-69-108-90-173l609-837h230v824h153zm-363 0c3-182-8-376 8-546L269-505h375" id="aa"/><use transform="matrix(0.010850694444444444,0,0,0.010850694444444444,0,0)" xlink:href="#aa" id="j"/><path d="M463-670c-69 0-128 14-183 34l-149-41 108-651h650v101c-3 78-52 116-142 116H407l-44 261c53-11 103-16 152-16 263 0 419 147 419 406 0 232-122 371-292 440-125 51-309 39-418-14-62-30-119-68-165-112l74-102c44-65 117-14 161 14 42 27 94 49 166 47 158-4 231-103 233-261 2-143-84-223-230-222" id="ab"/><use transform="matrix(0.010850694444444444,0,0,0.010850694444444444,0,0)" xlink:href="#ab" id="k"/><path d="M456-845c80-38 203-43 294-6 146 60 243 188 243 393 0 223-117 364-277 436-109 49-273 49-382 1C168-93 67-246 67-479c0-175 67-295 150-418l300-442c25-33 77-59 136-59h226c-141 184-282 368-423 553zm64 158c-139 0-209 104-209 247 0 149 63 249 209 249 141 0 219-103 219-248 0-149-72-248-219-248" id="ac"/><use transform="matrix(0.010850694444444444,0,0,0.010850694444444444,0,0)" xlink:href="#ac" id="l"/><path fill="#fff" d="M273 14c-93 0-152-58-152-151 0-92 60-151 152-151s153 59 153 151c0 93-60 151-153 151" id="ad"/><path fill="#fff" d="M960-966c48 161 48 442 0 603C896-149 775 14 517 14 261 14 140-150 78-363c-47-161-48-443 0-603 63-213 183-377 439-377s380 165 443 377zM602-206c161-87 169-454 126-694-24-133-71-244-211-244-138 0-184 113-207 244-41 238-36 607 122 694 54 29 116 28 170 0" id="ae"/><g id="n"><use transform="matrix(0.008680555555555552,0,0,0.008680555555555552,0,0)" xlink:href="#ad"/><use transform="matrix(0.008680555555555552,0,0,0.008680555555555552,4.7482638888888875,0)" xlink:href="#R"/><use transform="matrix(0.008680555555555552,0,0,0.008680555555555552,13.758680555555552,0)" xlink:href="#ae"/><use transform="matrix(0.008680555555555552,0,0,0.008680555555555552,22.769097222222214,0)" xlink:href="#R"/></g><filter id="m" filterUnits="objectBoundingBox" x="-.1" y="-.03" width="1.2" height="1.17"><feOffset result="offOut" in="SourceAlpha" dy="6"/><feGaussianBlur result="blurOut" in="offOut" stdDeviation="5"/><feColorMatrix result="colorOut" in="blurOut" values="0 0 0 0 0 0 0 0 0 0 0 0 0 0 0 0 0 0 0.5019607843137255 0"/><feBlend in="SourceGraphic" in2="colorOut"/></filter><use transform="matrix(0.013020833333333334,0,0,0.013020833333333334,0,0)" xlink:href="#N" id="p"/><filter id="o" filterUnits="objectBoundingBox" x="-.12" y="-.06" width="1.24" height="1.29"><feOffset result="offOut" in="SourceAlpha" dy="6"/><feGaussianBlur result="blurOut" in="offOut" stdDeviation="5"/><feColorMatrix result="colorOut" in="blurOut" values="0 0 0 0 0 0 0 0 0 0 0 0 0 0 0 0 0 0 0.5019607843137255 0"/><feBlend in="SourceGraphic" in2="colorOut"/></filter><path fill="#fff" d="M147 0H94L2-248h55l64 206c17-72 42-137 63-206h54" id="af"/><path fill="#fff" d="M24 0v-248h52v208h133V0H24" id="ag"/><path fill="#fff" d="M199 0l-22-63H83L61 0H9l90-248h61L250 0h-51zm-33-102l-36-108c-10 38-24 72-36 108h72" id="ah"/><path fill="#fff" d="M175 0L67-191c6 58 2 128 3 191H24v-248h59L193-55c-6-58-2-129-3-193h46V0h-61" id="ai"/><g id="q"><use transform="matrix(0.06172839506172839,0,0,0.06172839506172839,0,0)" xlink:href="#af"/><use transform="matrix(0.06172839506172839,0,0,0.06172839506172839,14.814814814814813,0)" xlink:href="#ag"/><use transform="matrix(0.06172839506172839,0,0,0.06172839506172839,28.33333333333333,0)" xlink:href="#ah"/><use transform="matrix(0.06172839506172839,0,0,0.06172839506172839,44.32098765432098,0)" xlink:href="#ai"/></g><path fill="#fff" d="M182-182c0 78-84 86-111 141h115V0H12c-6-101 99-100 120-180 1-22-12-31-33-32-23 0-32 14-35 34l-49-3c5-45 32-70 84-70 51 0 83 22 83 69" id="aj"/><path fill="#fff" d="M24 0v-248h52V0H24" id="ak"/><g id="r"><use transform="matrix(0.06172839506172839,0,0,0.06172839506172839,0,0)" xlink:href="#ag"/><use transform="matrix(0.06172839506172839,0,0,0.06172839506172839,13.518518518518517,0)" xlink:href="#aj"/><use transform="matrix(0.06172839506172839,0,0,0.06172839506172839,25.864197530864196,0)" xlink:href="#af"/><use transform="matrix(0.06172839506172839,0,0,0.06172839506172839,40.67901234567901,0)" xlink:href="#ai"/><use transform="matrix(0.06172839506172839,0,0,0.06172839506172839,56.666666666666664,0)" xlink:href="#ak"/></g><path fill="#fff" d="M169-182c-1-43-94-46-97-3 18 66 151 10 154 114 3 95-165 93-204 36-6-8-10-19-12-30l50-8c3 46 112 56 116 5-17-69-150-10-154-114-4-87 153-88 188-35 5 8 8 18 10 28" id="al"/><path fill="#fff" d="M85 4C-2 5 27-109 22-190h50c7 57-23 150 33 157 60-5 35-97 40-157h50l1 190h-47c-2-12 1-28-3-38-12 25-28 42-61 42" id="am"/><path fill="#fff" d="M135-194c52 0 70 43 70 98 0 56-19 99-73 100-30 1-46-15-58-35L72 0H24l1-261h50v104c11-23 29-37 60-37zM114-30c31 0 40-27 40-66 0-37-7-63-39-63s-41 28-41 65c0 36 8 64 40 64" id="an"/><path fill="#fff" d="M135-194c87-1 58 113 63 194h-50c-7-57 23-157-34-157-59 0-34 97-39 157H25l-1-190h47c2 12-1 28 3 38 12-26 28-41 61-42" id="ao"/><path fill="#fff" d="M185-48c-13 30-37 53-82 52C43 2 14-33 14-96s30-98 90-98c62 0 83 45 84 108H66c0 31 8 55 39 56 18 0 30-7 34-22zm-45-69c5-46-57-63-70-21-2 6-4 13-4 21h74" id="ap"/><path fill="#fff" d="M115-3C79 11 28 4 28-45v-112H4v-33h27l15-45h31v45h36v33H77v99c-1 23 16 31 38 25v30" id="aq"/><g id="s"><use transform="matrix(0.06172839506172839,0,0,0.06172839506172839,0,0)" xlink:href="#al"/><use transform="matrix(0.06172839506172839,0,0,0.06172839506172839,14.814814814814813,0)" xlink:href="#am"/><use transform="matrix(0.06172839506172839,0,0,0.06172839506172839,28.33333333333333,0)" xlink:href="#an"/><use transform="matrix(0.06172839506172839,0,0,0.06172839506172839,41.85185185185185,0)" xlink:href="#ao"/><use transform="matrix(0.06172839506172839,0,0,0.06172839506172839,55.37037037037037,0)" xlink:href="#ap"/><use transform="matrix(0.06172839506172839,0,0,0.06172839506172839,67.71604938271605,0)" xlink:href="#aq"/></g><path fill="#fff" d="M240-174c0 40-23 61-54 70L253 0h-59l-57-94H76V0H24v-248c93 4 217-23 216 74zM76-134c48-2 112 12 112-38 0-48-66-32-112-35v73" id="ar"/><path fill="#fff" d="M76-208v77h127v40H76V0H24v-248h183v40H76" id="as"/><g id="t"><use transform="matrix(0.06172839506172839,0,0,0.06172839506172839,0,0)" xlink:href="#af"/><use transform="matrix(0.06172839506172839,0,0,0.06172839506172839,14.814814814814813,0)" xlink:href="#ar"/><use transform="matrix(0.06172839506172839,0,0,0.06172839506172839,30.80246913580247,0)" xlink:href="#as"/></g><path fill="#fff" d="M128-127c34 4 56 21 59 58 7 91-148 94-172 28-4-9-6-17-7-26l51-5c1 24 16 35 40 36 23 0 39-12 38-36-1-31-31-36-65-34v-40c32 2 59-3 59-33 0-20-13-33-34-33s-33 13-35 32l-50-3c6-44 37-68 86-68 50 0 83 20 83 66 0 35-22 52-53 58" id="at"/><g id="u"><use transform="matrix(0.06172839506172839,0,0,0.06172839506172839,0,0)" xlink:href="#ag"/><use transform="matrix(0.06172839506172839,0,0,0.06172839506172839,13.518518518518517,0)" xlink:href="#at"/><use transform="matrix(0.06172839506172839,0,0,0.06172839506172839,25.864197530864196,0)" xlink:href="#af"/><use transform="matrix(0.06172839506172839,0,0,0.06172839506172839,40.67901234567901,0)" xlink:href="#ai"/><use transform="matrix(0.06172839506172839,0,0,0.06172839506172839,56.666666666666664,0)" xlink:href="#ak"/></g><path fill="#fff" d="M67-125c0 53 21 87 73 88 37 1 54-22 65-47l45 17C233-25 199 4 140 4 58 4 20-42 15-125 8-235 124-281 211-232c18 10 29 29 36 50l-46 12c-8-25-30-41-62-41-52 0-71 34-72 86" id="au"/><path fill="#fff" d="M110-194c64 0 96 36 96 99 0 64-35 99-97 99-61 0-95-36-95-99 0-62 34-99 96-99zm-1 164c35 0 45-28 45-65 0-40-10-65-43-65-34 0-45 26-45 65 0 36 10 65 43 65" id="av"/><path fill="#fff" d="M25 0v-261h50V0H25" id="aw"/><path fill="#fff" d="M135-150c-39-12-60 13-60 57V0H25l-1-190h47c2 13-1 29 3 40 6-28 27-53 61-41v41" id="ax"/><g id="v"><use transform="matrix(0.06172839506172839,0,0,0.06172839506172839,0,0)" xlink:href="#au"/><use transform="matrix(0.06172839506172839,0,0,0.06172839506172839,15.987654320987653,0)" xlink:href="#av"/><use transform="matrix(0.06172839506172839,0,0,0.06172839506172839,29.50617283950617,0)" xlink:href="#aw"/><use transform="matrix(0.06172839506172839,0,0,0.06172839506172839,35.67901234567901,0)" xlink:href="#av"/><use transform="matrix(0.06172839506172839,0,0,0.06172839506172839,49.19753086419753,0)" xlink:href="#ax"/></g><path d="M27 0v-27h64v-190l-56 39v-29l58-41h29v221h61V0H27" id="ay"/><path d="M101-251c68 0 85 55 85 127S166 4 100 4C33 4 14-52 14-124c0-73 17-127 87-127zm-1 229c47 0 54-49 54-102s-4-102-53-102c-51 0-55 48-55 102 0 53 5 102 54 102" id="az"/><g id="w"><use transform="matrix(0.06172839506172839,0,0,0.06172839506172839,0,0)" xlink:href="#ay"/><use transform="matrix(0.06172839506172839,0,0,0.06172839506172839,12.345679012345679,0)" xlink:href="#az"/></g><g id="x"><use transform="matrix(0.06172839506172839,0,0,0.06172839506172839,0,0)" xlink:href="#ay"/><use transform="matrix(0.06172839506172839,0,0,0.06172839506172839,12.345679012345679,0)" xlink:href="#az"/><use transform="matrix(0.06172839506172839,0,0,0.06172839506172839,24.691358024691358,0)" xlink:href="#az"/><use transform="matrix(0.06172839506172839,0,0,0.06172839506172839,37.03703703703704,0)" xlink:href="#ay"/><use transform="matrix(0.06172839506172839,0,0,0.06172839506172839,49.382716049382715,0)" xlink:href="#az"/></g><path d="M33 0v-38h34V0H33" id="aA"/><path d="M0 4l72-265h28L28 4H0" id="aB"/><path d="M101-251c82-7 93 87 43 132L82-64C71-53 59-42 53-27h129V0H18c2-99 128-94 128-182 0-28-16-43-45-43s-46 15-49 41l-32-3c6-41 34-60 81-64" id="aC"/><path d="M155-56V0h-30v-56H8v-25l114-167h33v167h35v25h-35zm-30-156c-27 46-58 90-88 131h88v-131" id="aD"/><g id="y"><use transform="matrix(0.06172839506172839,0,0,0.06172839506172839,0,0)" xlink:href="#ay"/><use transform="matrix(0.06172839506172839,0,0,0.06172839506172839,12.345679012345679,0)" xlink:href="#az"/><use transform="matrix(0.06172839506172839,0,0,0.06172839506172839,24.691358024691358,0)" xlink:href="#aA"/><use transform="matrix(0.06172839506172839,0,0,0.06172839506172839,30.864197530864196,0)" xlink:href="#ay"/><use transform="matrix(0.06172839506172839,0,0,0.06172839506172839,43.20987654320987,0)" xlink:href="#az"/><use transform="matrix(0.06172839506172839,0,0,0.06172839506172839,55.55555555555555,0)" xlink:href="#aA"/><use transform="matrix(0.06172839506172839,0,0,0.06172839506172839,61.72839506172839,0)" xlink:href="#ay"/><use transform="matrix(0.06172839506172839,0,0,0.06172839506172839,74.07407407407408,0)" xlink:href="#az"/><use transform="matrix(0.06172839506172839,0,0,0.06172839506172839,86.41975308641976,0)" xlink:href="#aA"/><use transform="matrix(0.06172839506172839,0,0,0.06172839506172839,92.5925925925926,0)" xlink:href="#az"/><use transform="matrix(0.06172839506172839,0,0,0.06172839506172839,104.93827160493828,0)" xlink:href="#aB"/><use transform="matrix(0.06172839506172839,0,0,0.06172839506172839,111.11111111111111,0)" xlink:href="#aC"/><use transform="matrix(0.06172839506172839,0,0,0.06172839506172839,123.4567901234568,0)" xlink:href="#aD"/></g><path d="M205 0l-28-72H64L36 0H1l101-248h38L239 0h-34zm-38-99l-47-123c-12 45-31 82-46 123h93" id="aE"/><use transform="matrix(0.06172839506172839,0,0,0.06172839506172839,0,0)" xlink:href="#aE" id="z"/><path d="M54-142c48-35 137-8 131 61C196 18 31 33 14-55l32-4c7 23 22 37 52 37 35-1 51-22 54-58 4-55-73-65-99-34H22l8-134h141v27H59" id="aF"/><g id="A"><use transform="matrix(0.06172839506172839,0,0,0.06172839506172839,0,0)" xlink:href="#aF"/><use transform="matrix(0.06172839506172839,0,0,0.06172839506172839,12.345679012345679,0)" xlink:href="#az"/><use transform="matrix(0.06172839506172839,0,0,0.06172839506172839,24.691358024691358,0)" xlink:href="#az"/><use transform="matrix(0.06172839506172839,0,0,0.06172839506172839,37.03703703703704,0)" xlink:href="#az"/><use transform="matrix(0.06172839506172839,0,0,0.06172839506172839,49.382716049382715,0)" xlink:href="#ay"/></g><g id="B"><use transform="matrix(0.06172839506172839,0,0,0.06172839506172839,0,0)" xlink:href="#aC"/><use transform="matrix(0.06172839506172839,0,0,0.06172839506172839,12.345679012345679,0)" xlink:href="#az"/></g><g id="C"><use transform="matrix(0.06172839506172839,0,0,0.06172839506172839,0,0)" xlink:href="#ay"/><use transform="matrix(0.06172839506172839,0,0,0.06172839506172839,12.345679012345679,0)" xlink:href="#az"/><use transform="matrix(0.06172839506172839,0,0,0.06172839506172839,24.691358024691358,0)" xlink:href="#az"/><use transform="matrix(0.06172839506172839,0,0,0.06172839506172839,37.03703703703704,0)" xlink:href="#aC"/><use transform="matrix(0.06172839506172839,0,0,0.06172839506172839,49.382716049382715,0)" xlink:href="#az"/></g><g id="D"><use transform="matrix(0.06172839506172839,0,0,0.06172839506172839,0,0)" xlink:href="#ay"/><use transform="matrix(0.06172839506172839,0,0,0.06172839506172839,12.345679012345679,0)" xlink:href="#az"/><use transform="matrix(0.06172839506172839,0,0,0.06172839506172839,24.691358024691358,0)" xlink:href="#aA"/><use transform="matrix(0.06172839506172839,0,0,0.06172839506172839,30.864197530864196,0)" xlink:href="#aC"/><use transform="matrix(0.06172839506172839,0,0,0.06172839506172839,43.20987654320987,0)" xlink:href="#az"/><use transform="matrix(0.06172839506172839,0,0,0.06172839506172839,55.55555555555555,0)" xlink:href="#aA"/><use transform="matrix(0.06172839506172839,0,0,0.06172839506172839,61.72839506172839,0)" xlink:href="#aC"/><use transform="matrix(0.06172839506172839,0,0,0.06172839506172839,74.07407407407408,0)" xlink:href="#az"/><use transform="matrix(0.06172839506172839,0,0,0.06172839506172839,86.41975308641976,0)" xlink:href="#aA"/><use transform="matrix(0.06172839506172839,0,0,0.06172839506172839,92.5925925925926,0)" xlink:href="#az"/><use transform="matrix(0.06172839506172839,0,0,0.06172839506172839,104.93827160493828,0)" xlink:href="#aB"/><use transform="matrix(0.06172839506172839,0,0,0.06172839506172839,111.11111111111111,0)" xlink:href="#aC"/><use transform="matrix(0.06172839506172839,0,0,0.06172839506172839,123.4567901234568,0)" xlink:href="#aD"/></g><path d="M126-127c33 6 58 20 58 59 0 88-139 92-164 29-3-8-5-16-6-25l32-3c6 27 21 44 54 44 32 0 52-15 52-46 0-38-36-46-79-43v-28c39 1 72-4 72-42 0-27-17-43-46-43-28 0-47 15-49 41l-32-3c6-42 35-63 81-64 48-1 79 21 79 65 0 36-21 52-52 59" id="aG"/><g id="E"><use transform="matrix(0.06172839506172839,0,0,0.06172839506172839,0,0)" xlink:href="#aG"/><use transform="matrix(0.06172839506172839,0,0,0.06172839506172839,12.345679012345679,0)" xlink:href="#az"/></g><g id="F"><use transform="matrix(0.06172839506172839,0,0,0.06172839506172839,0,0)" xlink:href="#ay"/><use transform="matrix(0.06172839506172839,0,0,0.06172839506172839,12.345679012345679,0)" xlink:href="#az"/><use transform="matrix(0.06172839506172839,0,0,0.06172839506172839,24.691358024691358,0)" xlink:href="#az"/><use transform="matrix(0.06172839506172839,0,0,0.06172839506172839,37.03703703703704,0)" xlink:href="#aG"/><use transform="matrix(0.06172839506172839,0,0,0.06172839506172839,49.382716049382715,0)" xlink:href="#az"/></g><g id="G"><use transform="matrix(0.06172839506172839,0,0,0.06172839506172839,0,0)" xlink:href="#ay"/><use transform="matrix(0.06172839506172839,0,0,0.06172839506172839,12.345679012345679,0)" xlink:href="#az"/><use transform="matrix(0.06172839506172839,0,0,0.06172839506172839,24.691358024691358,0)" xlink:href="#aA"/><use transform="matrix(0.06172839506172839,0,0,0.06172839506172839,30.864197530864196,0)" xlink:href="#aG"/><use transform="matrix(0.06172839506172839,0,0,0.06172839506172839,43.20987654320987,0)" xlink:href="#az"/><use transform="matrix(0.06172839506172839,0,0,0.06172839506172839,55.55555555555555,0)" xlink:href="#aA"/><use transform="matrix(0.06172839506172839,0,0,0.06172839506172839,61.72839506172839,0)" xlink:href="#aG"/><use transform="matrix(0.06172839506172839,0,0,0.06172839506172839,74.07407407407408,0)" xlink:href="#az"/><use transform="matrix(0.06172839506172839,0,0,0.06172839506172839,86.41975308641976,0)" xlink:href="#aA"/><use transform="matrix(0.06172839506172839,0,0,0.06172839506172839,92.5925925925926,0)" xlink:href="#az"/><use transform="matrix(0.06172839506172839,0,0,0.06172839506172839,104.93827160493828,0)" xlink:href="#aB"/><use transform="matrix(0.06172839506172839,0,0,0.06172839506172839,111.11111111111111,0)" xlink:href="#aC"/><use transform="matrix(0.06172839506172839,0,0,0.06172839506172839,123.4567901234568,0)" xlink:href="#aD"/></g><path fill="#fff" d="M1048-974c0 163-99 241-224 288 171 41 257 139 257 293C1081-125 889 0 612 0H119v-1328h451c279 2 478 84 478 354zM823-399c0-131-83-178-217-178H382v373h225c139 0 216-61 216-195zm-37-542c0-143-71-185-216-185H382v368h173c140-1 231-45 231-183" id="aH"/><use transform="matrix(0.013020833333333334,0,0,0.013020833333333334,0,0)" xlink:href="#aH" id="H"/><g id="I"><use transform="matrix(0.008680555555555552,0,0,0.008680555555555552,0,0)" xlink:href="#ad"/><use transform="matrix(0.008680555555555552,0,0,0.008680555555555552,4.7482638888888875,0)" xlink:href="#R"/><use transform="matrix(0.008680555555555552,0,0,0.008680555555555552,13.758680555555552,0)" xlink:href="#ae"/><use transform="matrix(0.008680555555555552,0,0,0.008680555555555552,22.769097222222214,0)" xlink:href="#Q"/></g><path fill="#fff" d="M1063-193C972-66 836 14 625 14 325 14 160-160 82-392c-55-162-54-387 4-546 84-230 253-399 553-405 185-4 321 74 409 173-37 47-65 102-108 143-52 29-90-19-122-42-68-49-222-71-314-21-130 72-193 222-193 425 0 205 69 355 201 427 92 51 249 32 318-20 30-23 81-99 128-48" id="aI"/><use transform="matrix(0.013020833333333334,0,0,0.013020833333333334,0,0)" xlink:href="#aI" id="J"/><path fill="#fff" d="M1198-932c62 158 61 378 0 536C1107-162 916 0 600 0H116v-1328h484c315 6 507 163 598 396zM600-209c264-9 377-187 377-456 0-268-114-446-377-455H380v911h220" id="aJ"/><use transform="matrix(0.013020833333333334,0,0,0.013020833333333334,0,0)" xlink:href="#aJ" id="K"/></defs></g></svg>